<?xml version="1.0" encoding="utf-8"?>
<!-- Generator: Adobe Illustrator 26.2.1, SVG Export Plug-In . SVG Version: 6.00 Build 0)  -->
<svg version="1.1" id="Layer_1" xmlns="http://www.w3.org/2000/svg" xmlns:xlink="http://www.w3.org/1999/xlink" x="0px" y="0px"
	 viewBox="0 0 595.28 466.03" style="enable-background:new 0 0 595.28 466.03;" xml:space="preserve">
<style type="text/css">
	.st0{fill:#226734;}
	.st1{fill:#FBAE1A;}
	.st2{fill:#FBAE1B;}
	.st3{fill:#2F6A37;}
	.st4{fill:#FCB020;}
	.st5{fill:#216735;}
	.st6{fill:#1F6634;}
	.st7{fill:#265B31;}
	.st8{fill:#2B5D34;}
	.st9{fill:#295C33;}
	.st10{fill:#306037;}
	.st11{fill:#21592F;}
</style>
<g>
	<path class="st0" d="M293.5,268.93c-0.75,0.44-1.54,0.28-2.3,0.28c-24.58,0.01-49.16,0.26-73.74-0.06
		c-25.28-0.33-48.29-8.15-68.68-23.1c-25.08-18.39-40.73-43.01-47.26-73.38c-2.1-9.78-2.85-19.71-2.34-29.71
		c2.72-54.07,39.72-97.33,88.28-110.78c5.97-1.65,12.01-2.94,18.19-3.56c1.15-0.12,2.32-0.15,3.48-0.15
		c27.09-0.01,54.19-0.01,81.28,0c3.68,0,3.26-0.37,3.27,3.23c0.01,8.9,0.01,17.8,0,26.69c0,0.68-0.01,1.35-0.02,2.03
		c-0.01,0.55-0.27,0.91-0.84,0.94c-0.48,0.03-0.97,0.03-1.45,0.03c-5.81,0-11.61-0.02-17.42,0.02c-1.2,0.01-2.24-0.25-3.29-0.87
		c-10.02-5.86-20.78-9.77-32.18-11.91c-8.02-1.5-16.11-1.95-24.27-1.5c-17.96,1-34.57,6.3-49.56,16.18
		c-23.57,15.53-38.46,37.18-44.22,64.84c-10.85,52.1,20.8,104.16,72.86,118.31c11.23,3.05,22.64,4.11,34.2,3.27
		c14.96-1.09,29.02-5.36,42.13-12.7c0.51-0.28,1-0.59,1.5-0.87c0.55-0.31,0.85-0.74,0.83-1.4c-0.03-0.58,0-1.16,0-1.74
		c0-33.95,0-67.9,0-101.84c0-0.68-0.02-1.35-0.03-2.03c0-0.2-0.14-0.3-0.39-0.28c-0.08,0.01-0.2,0.06-0.23,0.13
		c-0.31,0.7-0.64,1.39-0.9,2.11c-5.25,14.33-10.49,28.66-15.74,42.99c-2.72,7.44-5.44,14.88-8.17,22.31
		c-0.85,2.32-0.63,2.21-3.03,2.21c-7.26,0-14.52,0.01-21.77-0.01c-1.93,0-1.95-0.02-2.65-1.91c-3.99-10.88-7.97-21.77-11.94-32.65
		c-4.08-11.16-8.14-22.32-12.22-33.48c-0.25-0.68-0.39-1.42-1.15-2.1c-0.41,1.23-0.24,2.27-0.24,3.28
		c-0.01,20.99,0,41.98-0.01,62.96c0,4.46,0.48,3.87-3.82,3.89c-6,0.03-12,0.01-18,0.01c-0.77,0-1.55,0.01-2.32-0.02
		c-0.71-0.02-1.02-0.45-1.04-1.12c-0.02-0.58-0.01-1.16-0.01-1.74c0-28.73,0-57.45,0-86.18c0-3.16-0.15-2.94,3.03-2.94
		c11.52,0,23.03,0,34.55,0c0.48,0,0.97,0.05,1.45-0.01c1.07-0.13,1.57,0.47,1.92,1.36c1.56,4.06,3.13,8.11,4.69,12.17
		c5.87,15.23,11.73,30.46,17.63,45.69c0.34,0.88,0.51,1.88,1.37,2.73c0.32-0.7,0.64-1.33,0.89-1.98
		c7.29-19.03,14.57-38.07,21.85-57.1c1.24-3.24,0.64-2.84,4.05-2.84c10.26-0.02,20.51-0.01,30.77-0.01c0.68,0,1.35,0.01,2.03,0.01
		c0.69,0,1.1,0.32,1.13,1.01c0.03,0.68,0.02,1.35,0.02,2.03c0,4.26,0,8.51,0,12.77c0,47.68,0,95.36-0.01,143.04
		C293.67,266.65,293.85,267.82,293.5,268.93z"/>
	<path class="st1" d="M402.06,127.83c-1.09,0.64-1.1,1.49-1.35,2.18c-4.36,11.88-8.7,23.78-13.04,35.67
		c-3.68,10.08-7.35,20.15-11.03,30.23c-0.2,0.54-0.42,1.08-0.61,1.63c-0.22,0.62-0.67,0.93-1.3,0.96c-0.58,0.03-1.16,0.03-1.74,0.03
		c-6.87,0-13.74,0-20.61,0c-0.19,0-0.39,0-0.58,0c-2.08,0.05-2.12-0.25-2.72-1.88c-2.78-7.63-5.59-15.24-8.38-22.86
		c-5.19-14.15-10.36-28.31-15.55-42.47c-0.32-0.86-0.49-1.81-1.29-2.64c-0.51,1.12-0.33,2.08-0.33,3.01
		c-0.01,7.83-0.01,15.67-0.01,23.5c0,25.73-0.01,51.46,0.01,77.19c0,3.87-0.54,3.09,3.05,5.06c10.61,5.81,21.89,9.6,33.87,11.42
		c7.51,1.14,15.05,1.45,22.57,0.86c21.01-1.64,39.89-8.96,56.29-22.24c17.96-14.55,29.66-33.16,35.09-55.64
		c2.61-10.81,3.37-21.75,2.28-32.83c-2.45-24.85-12.59-46.07-30.43-63.49c-14.12-13.78-30.98-22.57-50.33-26.58
		c-6.56-1.36-13.19-2.09-19.87-2.09c-17.85,0-34.64,4.24-50.23,13.02c-1.73,0.98-3.43,1.52-5.46,1.47
		c-5.13-0.12-10.26-0.04-15.39-0.04c-0.77,0-1.55-0.01-2.32-0.05c-0.56-0.03-0.85-0.38-0.88-0.93c-0.01-0.29-0.03-0.58-0.03-0.87
		c0-9.67,0-19.34,0-29.02c0-0.39,0.01-0.77,0.05-1.16c0.05-0.43,0.33-0.71,0.74-0.76c0.67-0.08,1.35-0.11,2.02-0.11
		c27.48,0,54.97-0.02,82.45,0.01c4.18,0,8.28,0.82,12.34,1.65c18.68,3.83,35.65,11.49,50.62,23.32
		c22.36,17.67,36.76,40.46,43.32,68.19c2.69,11.37,3.6,22.94,2.79,34.57c-1.82,26.05-10.92,49.32-27.66,69.41
		c-17.82,21.4-40.53,34.94-67.7,40.96c-8.04,1.78-16.21,2.62-24.47,2.6c-23.52-0.05-47.03-0.02-70.55-0.02
		c-0.77,0-1.55,0.02-2.32-0.01c-1.52-0.05-1.59-0.13-1.63-1.7c-0.02-0.68,0-1.35,0-2.03c0-51.65,0-103.3,0.01-154.95
		c0-4.34-0.52-3.79,3.9-3.8c9.87-0.02,19.74-0.01,29.61-0.01c0.68,0,1.36,0.05,2.03-0.01c1.07-0.1,1.59,0.45,1.91,1.38
		c0.25,0.73,0.54,1.45,0.82,2.17c6.99,18.33,13.99,36.66,20.99,54.98c0.41,1.08,0.85,2.15,1.28,3.21c0.85-0.01,0.87-0.67,1.06-1.17
		c3.63-9.37,7.27-18.74,10.89-28.11c3.84-9.91,7.66-19.83,11.49-29.75c0.1-0.27,0.18-0.55,0.29-0.82c0.74-1.84,0.75-1.87,2.72-1.87
		c8.81-0.01,17.61-0.01,26.42-0.01c2.9,0,5.81,0,8.71,0c3.55,0,3.19-0.25,3.21,3.35c0,0.1,0,0.19,0,0.29
		c0,28.24,0.01,56.49-0.01,84.73c0,3.75,0.54,3.55-3.61,3.56c-6.1,0-12.19,0-18.29,0c-0.77,0-1.55-0.01-2.32-0.08
		c-0.42-0.03-0.72-0.34-0.75-0.76c-0.06-0.87-0.05-1.74-0.05-2.61c0-21.38,0-42.75,0-64.13
		C402.06,129.99,402.06,129.02,402.06,127.83z"/>
	<path class="st2" d="M508.44,361.75c-1.04,0.35-2.11,0.18-3.17,0.18c-12.68,0.01-25.35-0.01-38.03,0.02
		c-4.54,0.01-9.08,0.16-13.62,0.25c-0.68,0.01-1.36-0.04-2.03,0c-1.04,0.06-1.54-0.53-1.99-1.36c-1.86-3.39-3.76-6.75-5.65-10.13
		c-3.4-6.07-6.79-12.15-10.18-18.23c-0.28-0.5-0.49-1.06-1.1-1.34c-0.88,0.65-1.22,1.69-1.72,2.6c-4.8,8.61-9.58,17.23-14.37,25.85
		c-0.28,0.51-0.61,0.99-0.86,1.51c-0.38,0.8-1.01,1.1-1.87,1.09c-3.1-0.01-6.2,0.16-9.29-0.05c-3.1-0.22-6.18-0.15-9.27-0.21
		c-0.77-0.01-1.55,0.01-2.32-0.02c-1.12-0.05-1.25-0.19-1.3-1.42c-0.03-0.77-0.01-1.55-0.01-2.32c0-6.96,0-13.92,0-20.89
		c-0.65-0.14-0.74,0.45-0.91,0.83c-0.87,1.96-2.05,3.71-3.33,5.42c-3.99,5.35-7.93,10.73-11.94,16.07c-2.06,2.74-1.2,2.29-4.76,2.32
		c-2.42,0.02-4.84-0.02-7.26,0.02c-1.04,0.02-1.81-0.25-2.48-1.12c-4.77-6.21-9.59-12.39-14.38-18.59
		c-1.25-1.61-2.24-3.38-3.06-5.25c-0.22-0.51-0.48-0.98-1.08-1.82c0,1.75-0.07,2.97,0.01,4.18c0.42,5.99,0.13,11.98,0.22,17.98
		c0.02,1.16-0.01,2.32-0.02,3.48c-0.01,0.68-0.34,1.1-1.04,1.1c-2.81,0.01-5.61,0.01-8.42,0c-0.66,0-1.1-0.31-1.12-1.03
		c-0.02-0.68-0.03-1.35-0.03-2.03c0-11.7,0-23.4,0-35.11c0-0.68,0-1.35,0.04-2.03c0.03-0.54,0.34-0.93,0.9-0.94
		c3-0.02,6-0.02,9-0.02c0.53,0,0.9,0.32,1.21,0.69c0.49,0.6,0.96,1.21,1.43,1.83c7.18,9.36,14.36,18.72,21.55,28.08
		c0.58,0.76,1.21,1.49,1.77,2.19c0.79-0.1,1-0.69,1.32-1.13c6.8-9.64,13.6-19.28,20.4-28.92c0.17-0.24,0.31-0.49,0.48-0.72
		c1.74-2.39,1.31-2.01,4.02-2.03c2.61-0.02,5.23-0.02,7.84,0.01c1.13,0.01,1.3,0.22,1.34,1.4c0.03,0.77,0.01,1.55,0.01,2.32
		c0,10.93,0,21.86,0,32.79c0,0.97,0,1.93,0,2.88c0.9,0.29,1.02-0.44,1.28-0.89c4.65-8.03,9.28-16.07,13.92-24.11
		c2.56-4.44,5.16-8.85,7.68-13.31c0.49-0.87,1.09-1.22,2.07-1.2c2.71,0.05,5.42,0,8.13,0.02c2.62,0.02,2.23-0.34,3.65,2.01
		c2.14,3.56,4.22,7.16,6.34,10.74c5.12,8.65,10.24,17.3,15.36,25.95c0.24,0.41,0.52,0.8,0.76,1.16c0.61-0.05,0.62-0.44,0.62-0.82
		c0-2.9-0.01-5.8,0.02-8.7c0.02-1.85,0.04-1.87,2-1.88c1.84-0.01,3.68,0.02,5.51,0.05c0.17,0,0.34,0.15,0.56,0.26
		c0.37,1.09,0.11,2.26,0.22,3.4c0.06,0.55,0.34,0.9,0.89,0.95c0.58,0.05,1.16,0.03,1.74,0.03c7.74,0,15.48,0,23.22,0
		c0.48,0,0.97,0.01,1.45-0.01c1.09-0.06,1.3-0.25,1.31-1.43c0.01-2.03-0.02-4.06-0.08-6.09c-0.03-1.09-0.27-1.27-1.43-1.32
		c-0.77-0.03-1.55-0.01-2.32-0.01c-10.16,0-20.32-0.01-30.48,0c-2.63,0-2.6,0-2.6-2.51c0.01-6.38,0-12.77,0.01-19.15
		c0-0.58,0.03-1.16,0.08-1.73c0.04-0.44,0.34-0.68,0.76-0.72c0.48-0.04,0.96-0.06,1.45-0.06c13.84,0,27.67,0,41.51,0.01
		c0.48,0,0.96,0.08,1.44,0.13c0.02,0.35,0.04,0.71,0.07,1.06c0.03,3.28,0.06,6.56,0.08,9.84c0,0.69-0.35,1.07-1.05,1.07
		c-2.32,0-4.63,0-6.95-0.01c-0.73,0-0.99-0.45-1-1.11c-0.02-0.87-0.03-1.74-0.07-2.6c-0.02-0.56-0.36-0.88-0.91-0.91
		c-0.58-0.04-1.16-0.03-1.74-0.03c-5.7,0-11.39-0.06-17.09,0.03c-2.17,0.03-4.4-0.51-6.53,0.38c-0.41,2.29-0.1,4.6-0.18,6.9
		c0,0.1,0,0.19,0.01,0.29c0.07,0.54,0.36,0.89,0.92,0.92c0.77,0.04,1.54,0.05,2.31,0.05c9.46,0,18.93,0,28.39,0
		c0.68,0,1.35-0.01,2.03,0.01c1.76,0.05,1.85,0.11,1.87,1.76c0.03,2.12,0.02,4.25,0.01,6.37c-0.02,5.4-0.06,10.81-0.09,16.21
		C508.49,361.34,508.47,361.54,508.44,361.75z"/>
	<path class="st3" d="M162.87,321.24c0.04-0.32,0.25-0.51,0.55-0.52c0.77-0.02,1.55-0.01,2.32-0.01c27.19,0,54.37,0,81.56,0.01
		c1.05,0,2.13-0.16,3.35,0.23c0.03,5.05,0.06,10.15,0.08,15.14c0.99,0.56,1.88,0.39,2.74,0.39c16.16,0.01,32.31,0.01,48.47,0.01
		c2.8,0,2.55-0.02,2.56-2.49c0.01-3.48,0-6.96,0-10.44c0-0.86,0-1.72,0-2.55c2.27-0.39,8.8-0.44,11.66-0.12
		c0.42,0.61,0.29,1.3,0.29,1.97c0.01,12.38,0.01,24.75,0,37.13c0,0.48-0.01,0.97-0.05,1.45c-0.05,0.57-0.39,0.84-0.95,0.87
		c-0.1,0.01-0.19,0.01-0.29,0.01c-3.1,0-6.19,0.02-9.29-0.01c-1.12-0.01-1.34-0.23-1.34-1.39c-0.02-4.06-0.01-8.12-0.01-12.18
		c0-2.9,0.21-2.86-2.82-2.86c-15.96,0.01-31.93,0-47.89,0c-0.19,0-0.39,0-0.58,0c-2.77-0.03-2.54,0.23-2.55,2.58
		c-0.01,3.67,0,7.35,0,11.02c0,0.68-0.01,1.35-0.05,2.03c-0.03,0.42-0.27,0.72-0.7,0.77c-0.38,0.05-0.77,0.05-1.16,0.05
		c-2.9,0-5.8,0.02-8.71,0c-2.15-0.01-2.16-0.03-2.18-2.33c-0.02-2.32,0-4.64,0-6.96c0-6.87-0.02-13.73,0.02-20.6
		c0.01-1.31-0.27-2.44-0.97-3.55c-1.18-1.88-2.27-3.82-3.41-5.73c-0.29-0.49-0.58-1.04-1.31-0.93c-0.35-0.45-0.61-0.99-1.32-0.97
		c-0.77,0.03-1.54,0-2.32,0C206.69,321.25,184.78,321.25,162.87,321.24z"/>
	<path class="st4" d="M508.44,361.75c0.03-0.21,0.05-0.42,0.08-0.63c1.58,0.08,2.25-1.24,3.21-2.1c0.17-0.16,0.18-0.54,0.2-0.82
		c0.03-0.48,0.01-0.96,0.01-1.44c0-10.2,0-20.41,0-30.61c0-0.39-0.02-0.77,0-1.15c0.04-0.72-0.17-1.31-0.77-1.76
		c-0.54-0.4-1.06-0.83-1.59-1.25c-0.36-0.29-0.72-0.14-1.09-0.03c-0.02-0.35-0.04-0.71-0.07-1.06c0.87-0.05,1.73-0.14,2.6-0.14
		c14.03-0.01,28.07-0.01,42.1,0c0.68,0,1.35,0.01,2.03,0.04c0.57,0.03,0.87,0.38,0.91,0.91c0.04,0.48,0.04,0.97,0.04,1.45
		c0,6.96,0,13.93,0,20.89c0,0.48,0,0.97-0.03,1.45c-0.04,0.55-0.33,0.89-0.89,0.92c-0.68,0.04-1.35,0.05-2.03,0.05
		c-2.71,0.01-5.42-0.01-8.13,0.01c-0.66,0-1.35-0.13-1.98,0.23c-0.21,0.62,0.31,0.84,0.65,1.12c3.29,2.7,6.59,5.39,9.88,8.08
		c0.45,0.37,0.86,0.79,1.34,1.11c0.89,0.6,1.3,1.38,1.19,2.45c-0.05,0.48-0.02,0.97-0.02,1.45c0,0.75-0.44,1-1.11,1.01
		c-2.23,0.01-4.45-0.03-6.68,0.03c-1.06,0.03-1.84-0.35-2.58-1.06c-2.09-2.02-4.2-4-6.32-5.99c-2.61-2.45-5.22-4.9-7.83-7.35
		c-0.65-0.61-1.33-1.11-2.28-1.1c-2.13,0.02-4.26,0-6.39,0.03c-0.92,0.02-1.21,0.31-1.22,1.24c-0.03,3.29-0.02,6.58-0.03,9.87
		c0,1.06-0.01,2.13-0.02,3.19c-0.01,0.69-0.35,1.12-1.04,1.12C516.56,361.89,512.5,362.17,508.44,361.75z M534.28,339.24
		c1.35,0,2.71,0,4.06,0c2.42,0,4.84,0.02,7.25-0.01c1.13-0.02,1.31-0.22,1.33-1.39c0.03-1.93,0.02-3.87,0.02-5.8
		c0-1.06-0.03-2.12-0.08-3.18c-0.02-0.43-0.29-0.7-0.73-0.75c-0.29-0.04-0.58-0.08-0.86-0.08c-7.35,0-14.7-0.01-22.05,0
		c-0.19,0-0.39,0-0.58,0.02c-0.89,0.08-1.22,0.36-1.22,1.26c-0.02,2.8-0.03,5.61,0.02,8.41c0.02,1.34,0.23,1.52,1.53,1.53
		C526.74,339.26,530.51,339.24,534.28,339.24z"/>
	<path class="st5" d="M162.87,321.24c21.91,0,43.82,0,65.72,0.01c0.77,0,1.54,0.02,2.32,0c0.71-0.02,0.98,0.52,1.32,0.97
		c0.38,2.4,0.11,4.82,0.18,7.23c0.02,0.69-0.29,1.1-1,1.12c-0.77,0.02-1.55,0.02-2.32,0.02c-6.29,0-12.58,0-18.87,0
		c-0.77,0-1.55,0.01-2.32,0.01c-0.72,0-1.02,0.42-1.03,1.09c-0.01,0.77-0.02,1.55-0.02,2.32c0,8.22,0,16.44,0,24.66
		c0,0.68,0.02,1.35-0.01,2.03c-0.05,1.36-0.22,1.58-1.46,1.59c-3.29,0.02-6.58,0.02-9.87,0c-1.09-0.01-1.3-0.25-1.32-1.41
		c-0.03-2.03-0.01-4.06-0.01-6.09c0-6.96,0-13.93,0-20.89c0-0.68,0.02-1.35-0.01-2.03c-0.04-1-0.24-1.22-1.16-1.26
		c-0.77-0.03-1.55-0.02-2.32-0.02c-8.51,0-17.03,0-25.54-0.01c-0.58,0-1.16-0.04-1.74-0.06c-0.15-0.01-0.3,0-0.45,0.04l-0.08-0.09
		c-0.02-0.67-0.04-1.35-0.05-2.02C162.48,326.05,162.44,323.64,162.87,321.24z"/>
	<path class="st5" d="M134.44,339.74c0.08-0.18,0.17-0.36,0.25-0.54c0.12-0.18,0.24-0.36,0.36-0.53c0,0,0.01-0.02,0.01-0.02
		c0.45-0.21,0.58-0.61,0.6-1.07c0,0,0.04-0.08,0.04-0.08c0.4-0.2,0.53-0.56,0.57-0.97c0,0,0.09-0.18,0.09-0.18
		c0.14-0.21,0.28-0.43,0.41-0.64c0.02-0.48,0.23-0.85,0.63-1.12c0.44-0.21,0.57-0.6,0.59-1.05c0,0,0.05-0.1,0.05-0.1
		c0.39-0.19,0.51-0.54,0.56-0.94l-0.04-0.15c0,0,0.14-0.07,0.13-0.07c0.13-0.21,0.27-0.41,0.41-0.62c0.02-0.49,0.25-0.86,0.63-1.14
		c0.43-0.21,0.56-0.58,0.59-1.02c0,0,0.06-0.13,0.06-0.13c0.38-0.19,0.5-0.54,0.54-0.92l-0.03-0.16c0,0,0.14-0.08,0.14-0.08
		c0.13-0.2,0.26-0.4,0.4-0.6c0.02-0.5,0.28-0.86,0.65-1.16c0.41-0.2,0.53-0.56,0.57-0.98c0,0,0.07-0.16,0.07-0.16
		c0.14-0.22,0.28-0.44,0.42-0.66c0.08-0.18,0.17-0.36,0.25-0.54c0.12-0.18,0.24-0.36,0.36-0.53c0.02-0.51,0.3-0.87,0.66-1.19
		c0.15-0.24,0.3-0.47,0.44-0.71c-0.05-0.21,0.03-0.35,0.23-0.44c4.01-0.01,8.01-0.02,12.02-0.03c0.37,0.14,0.51,0.43,0.54,0.8
		c0.04,0.41,0.17,0.76,0.57,0.96c0.38,0.29,0.63,0.64,0.65,1.14c0.14,0.21,0.27,0.41,0.41,0.62l0.14,0.06c0,0-0.04,0.14-0.04,0.14
		c0.05,0.4,0.18,0.75,0.57,0.95c0,0,0.04,0.09,0.04,0.09c0.02,0.46,0.15,0.85,0.61,1.06c0,0,0.01,0.02,0.01,0.02
		c0.13,0.2,0.26,0.39,0.39,0.59l0.14,0.08c0,0-0.03,0.16-0.03,0.16c0.05,0.39,0.17,0.73,0.55,0.92c0,0,0.06,0.12,0.06,0.12
		c0.06,0.76,0.42,1.3,1.16,1.56c0,0,0.08,0.09,0.08,0.09c-0.06,0.46,0.02,0.85,0.43,1.13c0,0,0.07,0.14,0.07,0.14
		c0.03,0.43,0.17,0.8,0.59,1.01c0.4,0.27,0.62,0.64,0.64,1.12c0.14,0.21,0.28,0.43,0.42,0.64c0,0,0.08,0.18,0.08,0.18
		c0.04,0.41,0.18,0.77,0.58,0.97c0.38,0.29,0.63,0.64,0.65,1.13c0.14,0.21,0.27,0.42,0.41,0.62l0.13,0.06c0,0-0.04,0.14-0.04,0.14
		c0.05,0.4,0.18,0.75,0.57,0.95c0,0,0.04,0.09,0.04,0.09c0.02,0.46,0.15,0.85,0.61,1.06c0,0,0.01,0.02,0.01,0.02
		c0.13,0.2,0.26,0.39,0.39,0.59l0.14,0.08c0,0-0.03,0.16-0.03,0.16c0.05,0.39,0.17,0.73,0.55,0.92c0,0,0.05,0.12,0.05,0.12
		c0.03,0.44,0.16,0.82,0.6,1.03c0,0,0.02,0.03,0.02,0.03c0.12,0.17,0.24,0.35,0.36,0.52c0.08,0.18,0.17,0.36,0.25,0.53
		c0.14,0.22,0.29,0.45,0.43,0.67c0,0,0.07,0.14,0.07,0.14c0.03,0.43,0.17,0.8,0.59,1c0.39,0.27,0.62,0.63,0.64,1.12
		c0.14,0.21,0.28,0.43,0.42,0.64c0,0,0.08,0.18,0.08,0.18c0.04,0.41,0.18,0.77,0.58,0.97c0.39,0.28,0.63,0.65,0.65,1.14
		c0.14,0.2,0.27,0.41,0.41,0.61l0.14,0.06c0,0-0.04,0.14-0.04,0.14c0.05,0.4,0.18,0.75,0.57,0.95c0,0,0.04,0.09,0.04,0.09
		c0.02,0.46,0.16,0.85,0.61,1.05c0,0,0.01,0.02,0.01,0.02c0.13,0.2,0.26,0.39,0.39,0.59l0.14,0.08c0,0-0.03,0.16-0.03,0.16
		c0.05,0.39,0.17,0.73,0.55,0.92c0,0,0.06,0.12,0.06,0.12c0.03,0.44,0.16,0.82,0.6,1.03c0,0,0.02,0.03,0.02,0.03
		c0.12,0.17,0.24,0.35,0.36,0.52c0.09,0.18,0.17,0.36,0.26,0.54c0.14,0.22,0.29,0.44,0.43,0.67c0,0,0.07,0.14,0.07,0.14
		c0.04,0.43,0.17,0.8,0.59,1c0.39,0.27,0.62,0.64,0.64,1.12c0.14,0.21,0.28,0.43,0.42,0.64c0,0,0.08,0.17,0.08,0.17
		c0.04,0.42,0.18,0.78,0.59,0.98c0,0,0.02,0.04,0.02,0.04c-0.59,0.68-1.4,0.51-2.15,0.51c-3.36,0.01-6.71,0-10.07,0
		c-0.85-0.56-1.13-1.53-1.59-2.35c-4.85-8.65-9.68-17.31-14.52-25.96c-0.47-0.84-0.95-1.67-1.43-2.5c-1.04,0.32-1.2,1.27-1.59,1.98
		c-4.88,8.74-9.73,17.5-14.62,26.24c-0.51,0.9-0.8,1.98-1.72,2.61c-1.25,0-2.51-0.01-3.76-0.01c-1.93,0-3.86-0.02-5.79,0
		c-0.8,0-1.28-0.33-1.39-1.13c0,0,0.01-0.02,0.01-0.02c0.45-0.19,0.59-0.58,0.62-1.02c0,0,0.05-0.12,0.05-0.12
		c0.38-0.19,0.5-0.54,0.55-0.93l-0.03-0.15c0,0,0.14-0.07,0.14-0.07c0.13-0.2,0.27-0.4,0.4-0.6c0.02-0.49,0.26-0.86,0.64-1.15
		c0.41-0.2,0.54-0.57,0.58-1c0,0,0.07-0.15,0.07-0.15c0.14-0.22,0.28-0.45,0.43-0.67c0.08-0.18,0.16-0.36,0.25-0.53
		c0.12-0.18,0.24-0.36,0.36-0.54c0.02-0.51,0.29-0.87,0.66-1.18c0.4-0.2,0.52-0.55,0.56-0.96c0,0,0.08-0.18,0.08-0.18
		c0.35-0.19,0.46-0.51,0.51-0.88l-0.02-0.18c0,0,0.16-0.1,0.16-0.1c0.13-0.19,0.25-0.37,0.38-0.56c0,0,0.02-0.04,0.02-0.04
		c0.44-0.21,0.57-0.6,0.59-1.04c0,0,0.05-0.11,0.05-0.11c0.39-0.19,0.51-0.55,0.56-0.95l-0.04-0.14c0,0,0.13-0.06,0.13-0.06
		c0.14-0.21,0.27-0.42,0.41-0.63c0.02-0.49,0.25-0.85,0.64-1.13c0.42-0.21,0.55-0.59,0.58-1.02c0,0,0.06-0.13,0.06-0.13
		c0.38-0.2,0.5-0.55,0.54-0.94l-0.03-0.15c0,0,0.14-0.07,0.14-0.07c0.13-0.2,0.27-0.4,0.4-0.6c0.02-0.49,0.27-0.86,0.64-1.15
		c0.41-0.21,0.54-0.58,0.58-1.01c0,0,0.07-0.14,0.07-0.14C134.15,340.19,134.3,339.97,134.44,339.74z"/>
	<path class="st6" d="M85.09,356.01c0.13-0.2,0.26-0.39,0.39-0.59c0.13-0.08,0.21-0.2,0.25-0.35c0,0,0.09-0.15,0.09-0.15
		c0.15-0.2,0.3-0.39,0.45-0.59c0,0,0.01-0.02,0.01-0.02c0.43-0.16,0.59-0.51,0.64-0.93l-0.03-0.15c0,0,0.14-0.05,0.14-0.05
		c0.14-0.18,0.28-0.37,0.42-0.55c0,0,0.03-0.05,0.03-0.05c0.41-0.15,0.55-0.48,0.6-0.87l0-0.19c0,0,0.17-0.08,0.17-0.08
		c0.12-0.16,0.25-0.32,0.37-0.48c0,0,0.06-0.1,0.06-0.1c0.16-0.21,0.31-0.41,0.47-0.62c0,0,0,0,0,0c0.46-0.16,0.62-0.52,0.66-0.97
		c0,0,0.09-0.16,0.09-0.16c0.14-0.19,0.29-0.38,0.43-0.57c0,0,0.02-0.03,0.02-0.03c0.42-0.16,0.57-0.5,0.62-0.91l-0.02-0.16
		c0,0,0.15-0.06,0.15-0.06c0.14-0.18,0.27-0.36,0.41-0.53c0,0,0.04-0.06,0.04-0.06c0.29-0.12,0.45-0.34,0.49-0.65
		c0.11-0.18,0.22-0.37,0.33-0.55c0.16-0.09,0.27-0.22,0.31-0.4c0,0,0.08-0.13,0.08-0.12c0.15-0.2,0.3-0.4,0.46-0.6
		c0,0,0.01-0.01,0.01-0.01c0.45-0.16,0.6-0.52,0.65-0.95c0,0,0.11-0.18,0.11-0.18c0.14-0.19,0.28-0.37,0.42-0.56
		c0,0,0.03-0.04,0.03-0.04c0.42-0.15,0.57-0.49,0.61-0.9l-0.01-0.17c0,0,0.16-0.07,0.16-0.07c0.13-0.17,0.26-0.34,0.39-0.51
		c0.13-0.56,0.48-0.97,0.92-1.31c0.13-0.08,0.22-0.2,0.26-0.36c0,0,0.09-0.15,0.09-0.15c0.15-0.2,0.3-0.39,0.45-0.59
		c0,0,0.01-0.02,0.01-0.02c0.43-0.16,0.59-0.51,0.63-0.93l-0.02-0.15c0,0,0.14-0.05,0.14-0.05c0.14-0.18,0.28-0.36,0.42-0.55
		c0,0,0.03-0.05,0.03-0.05c0.17-0.22,0.33-0.45,0.5-0.67c0.1-0.17,0.2-0.35,0.31-0.52c0.18-0.09,0.3-0.23,0.34-0.44
		c0,0,0.06-0.1,0.06-0.1c0.16-0.2,0.31-0.41,0.47-0.61c0,0,0,0,0,0c0.46-0.16,0.61-0.53,0.65-0.97c0,0,0.09-0.15,0.09-0.15
		c0.15-0.19,0.29-0.38,0.44-0.57c0,0,0.02-0.03,0.02-0.03c0.42-0.16,0.57-0.51,0.62-0.92l-0.02-0.16c0,0,0.15-0.06,0.15-0.06
		c0.14-0.18,0.27-0.36,0.41-0.54c0,0,0.04-0.06,0.04-0.06c0.29-0.13,0.46-0.34,0.49-0.66c0.11-0.18,0.22-0.36,0.33-0.55
		c0.17-0.09,0.27-0.22,0.32-0.41c0,0,0.07-0.12,0.07-0.12c0.15-0.2,0.31-0.4,0.46-0.6c0,0,0.01-0.01,0.01-0.01
		c0.45-0.16,0.6-0.52,0.64-0.95c0,0,0.11-0.18,0.11-0.18c0.14-0.19,0.28-0.37,0.43-0.56c0,0,0.03-0.04,0.03-0.04
		c0.42-0.15,0.57-0.49,0.61-0.9l-0.01-0.17c0,0,0.16-0.07,0.16-0.07c0.13-0.17,0.26-0.34,0.39-0.5c0.03-0.34,0.18-0.59,0.52-0.7
		c0.48-0.16,0.63-0.53,0.67-0.99c0,0,0.08-0.14,0.08-0.14c0.15-0.2,0.3-0.39,0.45-0.59c0,0,0.01-0.02,0.01-0.02
		c0.43-0.16,0.59-0.51,0.63-0.94l-0.02-0.15c0,0,0.14-0.05,0.14-0.05c0.14-0.17,0.28-0.35,0.42-0.52c0,0,0.05-0.07,0.05-0.07
		c3.98,0,7.95,0,11.93,0c0.06,0.67,0.16,1.33,0.16,2c0,12.49,0,24.98-0.01,37.48c-0.66,0.7-1.35,1.18-2.42,1.15
		c-3.02-0.07-6.05-0.01-9.07-0.01c-0.11-0.36-0.31-0.72-0.31-1.08c0.02-7.4,0.07-14.81,0.12-22.21c0.01-0.76,0.14-1.53,0.22-2.29
		c0.5-0.39,0.54-0.92,0.43-1.47c-0.03-0.15-0.17-0.37-0.29-0.39c-0.14-0.03-0.34,0.1-0.46,0.22c-0.42,0.43-0.38,1-0.4,1.54
		c0.02,0.35-0.11,0.63-0.39,0.84c-0.1,0.11-0.15,0.23-0.16,0.37c-0.39,1.73-1.3,3.21-2.33,4.61c-4.76,6.45-9.55,12.88-14.34,19.31
		c-0.16,0.22-0.43,0.36-0.65,0.54c-2.17,0-4.35,0.01-6.52,0c-0.85,0-1.7,0.01-2.55-0.06c-0.55-0.04-0.75-0.49-0.85-0.98
		c0,0,0.07-0.1,0.06-0.1c0.15-0.2,0.31-0.4,0.47-0.6c0,0,0.01-0.01,0.01-0.01c0.45-0.16,0.6-0.51,0.65-0.94c0,0,0.11-0.18,0.11-0.18
		c0.14-0.19,0.28-0.37,0.42-0.56c0,0,0.03-0.04,0.03-0.04c0.42-0.15,0.57-0.48,0.61-0.89l-0.01-0.18c0,0,0.16-0.08,0.16-0.08
		c0.13-0.17,0.26-0.34,0.39-0.51c0,0,0.05-0.08,0.05-0.08C84.76,356.44,84.92,356.22,85.09,356.01z"/>
	<path class="st5" d="M49.62,335.15c0.01,0.79,0.01,1.58,0.02,2.37c-0.77,0.97-0.8,1.94,0.05,2.88c0.06,0.57,0.18,1.14,0.18,1.71
		c0.02,6.04,0.01,12.07,0.01,18.11c0,0.57,0.08,1.16-0.29,1.66c-3.29-0.01-6.59-0.01-9.88-0.02c-0.36-0.39-0.34-0.87-0.34-1.35
		c0-12.7,0-25.41,0.01-38.11c0-0.37,0.13-0.75,0.2-1.12c3.54,0,7.09-0.01,10.63-0.01c0,0,0.06,0.07,0.06,0.07
		c0.15,0.17,0.29,0.35,0.44,0.52l0.14,0.03c0,0-0.02,0.14-0.02,0.14c0.04,0.14,0.13,0.25,0.25,0.32c0.13,0.19,0.26,0.37,0.39,0.56
		c0.17,0.22,0.35,0.44,0.52,0.66c0,0,0.03,0.04,0.03,0.04c0.15,0.19,0.3,0.38,0.46,0.56c0,0,0.09,0.14,0.09,0.14
		c0.12,0.15,0.24,0.3,0.37,0.44l0.17,0.07c0,0,0.01,0.19,0.01,0.19c0.06,0.41,0.21,0.74,0.64,0.87c0,0,0.01,0.02,0.01,0.02
		c0.16,0.2,0.32,0.39,0.48,0.59c0,0,0.07,0.1,0.07,0.1c0.14,0.16,0.27,0.33,0.41,0.49l0.15,0.05c0,0-0.01,0.16-0.01,0.16
		c0.05,0.43,0.21,0.77,0.66,0.92c0.33,0.11,0.5,0.35,0.54,0.68c0.14,0.17,0.29,0.35,0.43,0.53c0,0,0.11,0.17,0.11,0.17
		c0.05,0.44,0.21,0.8,0.68,0.94c0,0-0.01-0.02-0.02-0.02c0.05,0.31,0.22,0.52,0.51,0.63c0,0,0.03,0.05,0.03,0.05
		c0.15,0.18,0.3,0.37,0.44,0.55c0,0,0.11,0.16,0.11,0.16c0.07,0.18,0.19,0.32,0.35,0.41l0.18,0.08c0,0,0.02,0.2,0.02,0.2
		c0.05,0.4,0.21,0.73,0.63,0.86c0,0,0.02,0.03,0.02,0.03c0.15,0.19,0.31,0.38,0.46,0.57c0,0,0.09,0.13,0.09,0.13
		c0.13,0.15,0.25,0.3,0.38,0.46l0.17,0.07c0,0,0.01,0.18,0.01,0.18c0.06,0.41,0.22,0.74,0.65,0.88c0,0,0.01,0.01,0.01,0.01
		c0.16,0.2,0.32,0.4,0.48,0.59c0,0,0.06,0.09,0.06,0.09c0.14,0.17,0.27,0.33,0.41,0.5l0.15,0.05c0,0-0.01,0.16-0.01,0.16
		c0.06,0.43,0.22,0.78,0.68,0.91c0.33,0.1,0.49,0.34,0.53,0.67c0.14,0.18,0.29,0.36,0.43,0.54c0,0,0.11,0.17,0.11,0.17
		c0.05,0.44,0.21,0.8,0.68,0.94c0,0-0.02-0.02-0.02-0.02c0.05,0.31,0.22,0.52,0.51,0.63c0,0,0.03,0.04,0.03,0.04
		c0.15,0.18,0.3,0.37,0.45,0.55c0,0,0.11,0.16,0.11,0.16c0.07,0.18,0.18,0.32,0.35,0.42c0.17,0.02,0.24,0.11,0.2,0.28
		c0.06,0.4,0.21,0.73,0.63,0.86c0,0,0.02,0.02,0.02,0.02c0.16,0.19,0.31,0.39,0.47,0.58c0,0,0.08,0.12,0.08,0.12
		c0.13,0.16,0.26,0.31,0.39,0.47l0.16,0.06c0,0,0,0.17,0,0.17c0.06,0.41,0.22,0.75,0.65,0.89c0.33,0.11,0.5,0.35,0.55,0.69
		c0.14,0.17,0.27,0.34,0.41,0.51l0.15,0.04c0,0-0.02,0.15-0.02,0.15c0.05,0.43,0.22,0.78,0.67,0.92c0.33,0.1,0.49,0.34,0.53,0.67
		c0.14,0.18,0.29,0.36,0.43,0.54l0.14,0.04c0,0-0.02,0.15-0.02,0.15c0.04,0.13,0.12,0.23,0.22,0.3c0.14,0.19,0.28,0.38,0.42,0.58
		c0.17,0.22,0.35,0.43,0.52,0.65c0,0,0.03,0.04,0.03,0.04c0.15,0.19,0.3,0.37,0.45,0.56c0,0,0.1,0.15,0.1,0.14
		c0.12,0.14,0.24,0.29,0.36,0.43l0.17,0.08c0,0,0.01,0.19,0.01,0.19c0.05,0.4,0.21,0.74,0.64,0.87c0,0,0.02,0.02,0.02,0.02
		c0.16,0.19,0.31,0.39,0.47,0.58c0,0,0.07,0.11,0.07,0.11c0.13,0.16,0.26,0.32,0.4,0.48l0.16,0.06c0,0,0,0.17,0,0.17
		c0.06,0.42,0.22,0.76,0.66,0.9c0.33,0.11,0.5,0.35,0.55,0.68c0.14,0.17,0.28,0.35,0.42,0.52l0.14,0.04c0,0-0.02,0.15-0.02,0.14
		c0.05,0.44,0.21,0.79,0.68,0.93c0,0-0.01-0.01-0.01-0.01c0.17,0.21,0.34,0.42,0.51,0.62c0,0,0.04,0.05,0.04,0.05
		c0.15,0.18,0.29,0.36,0.44,0.54l0.14,0.04c0,0-0.02,0.15-0.02,0.14c0.04,0.14,0.13,0.24,0.25,0.32c0.13,0.18,0.27,0.37,0.4,0.55
		c0.05,0.32,0.23,0.54,0.52,0.66c0,0,0.02,0.03,0.02,0.03c-0.12,0.81-0.61,1.13-1.4,1.13c-3.19,0-6.37,0.01-9.56,0.02
		c-0.28-0.24-0.62-0.45-0.84-0.74c-4.8-6.17-9.61-12.34-14.38-18.54c-1.47-1.91-2.81-3.91-3.44-6.29c-0.01-0.19-0.09-0.35-0.24-0.48
		c-0.1-0.25-0.21-0.51-0.31-0.76c-0.05-0.37-0.06-0.74-0.16-1.09c-0.04-0.13-0.27-0.26-0.42-0.27c-0.31-0.02-0.49,0.2-0.53,0.5
		C49.13,334.59,49.3,334.91,49.62,335.15z"/>
	<path class="st7" d="M245.97,394.63c0-3.38-0.01-6.77,0.01-10.15c0.01-1.32,0.17-1.49,1.53-1.5c3-0.03,6-0.1,8.99,0.02
		c4.2,0.16,6.42,1.95,7.45,5.99c1.01,3.91,0.98,7.86-0.02,11.76c-0.9,3.52-3.15,5.48-6.8,5.68c-3.37,0.19-6.77,0.06-10.15,0.06
		c-0.73,0-0.99-0.47-1-1.13c0-0.1-0.01-0.19-0.01-0.29C245.97,401.59,245.97,398.11,245.97,394.63z M251.42,394.94
		c-0.01,0-0.02,0-0.03,0c0,1.64-0.01,3.29,0,4.93c0.04,3.95-0.57,3.63,3.84,3.53c0.29-0.01,0.57-0.08,0.86-0.11
		c1.72-0.21,2.83-1.17,3.31-2.81c1.05-3.61,0.92-7.24,0.2-10.88c-0.07-0.37-0.24-0.74-0.42-1.08c-0.74-1.36-1.82-2.25-3.43-2.32
		c-1.16-0.05-2.32-0.06-3.48-0.03c-0.54,0.02-0.86,0.38-0.86,0.95C251.42,389.72,251.42,392.33,251.42,394.94z"/>
	<path class="st7" d="M197.17,406.35c-0.41,0.06-0.78,0.15-1.15,0.15c-3.86-0.02-3.44,0.45-3.45-3.34c-0.01-5.61,0-11.22,0-16.83
		c0-0.68-0.02-1.35,0.01-2.03c0.04-1.12,0.21-1.27,1.42-1.32c0.58-0.02,1.16-0.02,1.74,0c1.5,0.04,1.62,0.13,1.63,1.68
		c0.02,2.8-0.01,5.61,0.02,8.41c0.01,0.76-0.17,1.55,0.21,2.26c0.59,0.24,0.91-0.22,1.25-0.51c1.4-1.19,2.84-2.35,4.14-3.64
		c1.19-1.18,2.5-1.73,4.16-1.49c0.28,0.04,0.57,0.06,0.85,0.09c0.23,0.63-0.26,0.88-0.6,1.17c-1.1,0.95-2.23,1.86-3.32,2.81
		c-0.72,0.63-1.56,1.15-2.14,2.12c1.88,2.52,3.78,5.07,5.67,7.63c0.52,0.7,1.03,1.4,1.52,2.12c0.25,0.36,0.06,0.81-0.34,0.84
		c-0.29,0.02-0.58,0.03-0.87,0.04c-3.37,0.07-3.36,0.07-5.44-2.69c-1.17-1.54-2.34-3.08-3.54-4.59c-0.3-0.39-0.94-0.22-1.21,0.19
		c-0.41,0.62-0.32,1.29-0.35,1.96C197.3,403.01,197.56,404.65,197.17,406.35z"/>
	<path class="st8" d="M86.82,390.41c2.05-0.72,3.76-0.92,5.5-0.73c2.81,0.3,4.18,1.68,4.23,4.51c0.07,3.67,0.03,7.34,0,11.01
		c-0.01,1.08-0.28,1.28-1.43,1.31c-0.39,0.01-0.77-0.01-1.16-0.01c-0.68,0-1.1-0.31-1.13-1.01c-0.03-0.67-0.03-1.35-0.03-2.03
		c0-2.61,0-5.22-0.01-7.83c0-0.67-0.04-1.35-0.09-2.02c-0.06-0.76-0.53-1.25-1.22-1.46c-0.84-0.25-1.73-0.25-2.58-0.05
		c-1.4,0.32-2.05,1.14-2.06,2.68c-0.02,2.9-0.01,5.8-0.01,8.69c0,0.58,0.02,1.16-0.01,1.74c-0.05,1-0.25,1.22-1.16,1.28
		c-0.29,0.02-0.58,0.02-0.87,0.01c-2.85-0.03-2.87,0.38-2.86-2.79c0.01-5.99,0-11.98,0.01-17.97c0-0.67,0.02-1.35,0.08-2.02
		c0.04-0.43,0.36-0.66,0.77-0.73c0.28-0.05,0.58-0.04,0.87-0.04c3.55,0,3.16-0.21,3.18,3.06C86.82,387.37,86.82,388.72,86.82,390.41
		z"/>
	<path class="st9" d="M45.51,406.5c0-6.92,0-13.46,0-20.01c-1.63-0.61-3.19-0.28-4.71-0.35c-1.54-0.07-1.67-0.16-1.66-1.61
		c0-0.29,0.02-0.58,0.06-0.86c0.07-0.44,0.35-0.66,0.78-0.68c0.48-0.02,0.96-0.03,1.45-0.03c4.44,0,8.88,0,13.31,0
		c0.58,0,1.16,0.01,1.73,0.06c0.43,0.04,0.71,0.32,0.76,0.73c0.05,0.48,0.05,0.96,0.02,1.44c-0.03,0.55-0.34,0.89-0.91,0.9
		c-1.45,0.03-2.89,0.04-4.34,0.05c-0.68,0.01-1.07,0.33-1.07,1.04c0,0.67-0.01,1.35-0.01,2.02c0,4.72,0,9.45,0,14.17
		c0,0.67,0,1.35-0.01,2.02c-0.02,0.67-0.31,1.09-1.04,1.08C48.51,406.5,47.16,406.5,45.51,406.5z"/>
	<path class="st8" d="M152.66,406.5c-0.41-2.24-0.47-13.76-0.1-16.71c1.55,0.09,3.17-0.67,4.66,0.45c0.46,0.35,0.91,0.09,1.33-0.09
		c1.48-0.64,3.02-0.64,4.56-0.45c2.28,0.28,3.71,1.72,3.77,4.03c0.09,3.86,0.04,7.73,0.01,11.6c-0.01,0.92-0.29,1.13-1.26,1.18
		c-0.39,0.02-0.77,0.02-1.16,0c-0.96-0.04-1.25-0.28-1.29-1.16c-0.04-0.77-0.02-1.55-0.02-2.32c0-2.71,0.03-5.41-0.02-8.12
		c-0.03-1.86-0.86-2.69-2.59-2.76c-1.65-0.07-3.47,1.27-3.4,2.85c0.05,1.16,0.01,2.32,0.01,3.48c0,2.32,0,4.64-0.01,6.96
		c0,0.69-0.35,1.07-1.06,1.07C154.93,406.5,153.77,406.5,152.66,406.5z"/>
	<path class="st8" d="M519.38,406.39c-0.36,0.04-0.74,0.11-1.12,0.12c-2.22,0.02-2.23,0.02-2.25-2.22c-0.02-3.19-0.03-6.38,0-9.57
		c0.01-1.52-0.45-2.15-2.22-2.51c-1.97-0.39-3.67,0.97-3.72,3c-0.06,2.61-0.02,5.22-0.02,7.83c0,0.77,0,1.55-0.01,2.32
		c-0.01,0.67-0.31,1.11-1.02,1.13c-0.87,0.02-1.74,0.04-2.61,0.01c-1.1-0.04-1.31-0.23-1.31-1.43c-0.02-4.74-0.02-9.48,0-14.21
		c0-0.93,0.25-1.21,1.25-1.14c1.3,0.08,2.71-0.5,3.88,0.57c0.34,0.31,0.74,0.06,1.06-0.09c1.47-0.68,3.01-0.67,4.55-0.51
		c2.35,0.25,3.64,1.62,3.83,3.95c0.04,0.48,0.02,0.97,0.02,1.45c0,3,0.01,5.99,0,8.99C519.71,404.84,519.83,405.62,519.38,406.39z"
		/>
	<path class="st9" d="M403.69,402.84c-0.17,0.88-0.27,1.35-0.35,1.82c-0.12,0.75-0.53,1.19-1.26,1.4c-2.96,0.84-5.92,0.85-8.82-0.18
		c-1.63-0.58-2.75-1.77-3.27-3.45c-0.92-2.96-0.84-5.92,0.24-8.81c0.81-2.16,2.49-3.4,4.72-3.85c1.53-0.3,3.09-0.27,4.62,0.02
		c2.16,0.4,3.66,1.65,4.36,3.78c0.3,0.92,0.52,1.85,0.55,2.83c0.09,2.49,0.05,2.57-2.49,2.58c-1.93,0.01-3.87-0.01-5.8,0.01
		c-0.56,0.01-1.15-0.13-1.74,0.3c-0.16,1.26,0.37,2.39,0.96,3.48c0.49,0.9,1.34,1.38,2.37,1.44c1.07,0.06,2.13,0.01,3.14-0.37
		C401.73,403.56,402.53,403.27,403.69,402.84z M394.42,396.61c1.9,0,3.89,0.01,5.89,0c0.59,0,0.83-0.37,0.8-0.92
		c-0.02-0.38-0.03-0.77-0.13-1.13c-0.44-1.71-1.57-2.62-3.26-2.67c-1.76-0.05-2.69,0.69-3.27,2.56
		C394.25,395.09,394.05,395.73,394.42,396.61z"/>
	<path class="st9" d="M470.27,398.99c-0.21,1.59,0.39,2.79,1.08,3.94c0.53,0.88,1.41,1.26,2.44,1.31c1.89,0.1,3.61-0.5,5.28-1.32
		c0.33,2.24-0.02,2.96-1.94,3.36c-2.48,0.51-4.97,0.56-7.44-0.19c-2.38-0.72-3.73-2.34-4.18-4.7c-0.41-2.11-0.38-4.25,0.06-6.34
		c0.7-3.28,2.92-5.16,6.29-5.38c1.05-0.07,2.13-0.04,3.18,0.09c2.58,0.32,4.19,1.83,4.87,4.31c0.2,0.74,0.28,1.52,0.35,2.29
		c0.22,2.42,0.03,2.62-2.42,2.63C475.33,399,472.83,398.99,470.27,398.99z M476.85,396.46c0.37-1.12-0.02-2.02-0.43-2.87
		c-0.6-1.25-1.72-1.72-3.06-1.71c-1.38,0.01-2.41,0.62-2.88,1.94c-0.22,0.62-0.3,1.29-0.39,1.95c-0.05,0.4,0.15,0.82,0.58,0.82
		C472.74,396.61,474.83,396.82,476.85,396.46z"/>
	<path class="st10" d="M547.43,392.09c-0.85-0.05-1.42-0.07-2-0.12c-0.89-0.08-1.09-0.34-1.08-1.31c0.01-0.54,0.17-0.95,0.79-0.97
		c0.66-0.02,1.32,0,2.1,0c0.34-1.86,0.11-3.6,0.19-5.31c0.05-1.14,0.26-1.4,1.35-1.41c4.02-0.02,3.61-0.43,3.63,3.49
		c0,0.29-0.02,0.58,0,0.87c0.05,0.66-0.05,1.41,0.23,1.97c0.36,0.7,1.22,0.32,1.86,0.38c0.72,0.07,1,0.41,0.98,1.11
		c-0.02,0.66-0.22,1.12-0.96,1.17c-0.39,0.02-0.77,0.03-1.16,0.04c-0.57,0.01-0.92,0.27-0.92,0.86c-0.01,2.9-0.02,5.79-0.02,8.69
		c0,1.2,0.49,1.95,1.77,2.26c1.26,0.3,1.38,0.64,1.27,1.8c-0.05,0.57-0.33,0.88-0.9,0.91c-0.58,0.02-1.16,0.05-1.74,0
		c-3.78-0.3-5.35-1.95-5.4-5.74C547.41,397.97,547.43,395.18,547.43,392.09z"/>
	<path class="st7" d="M357.3,392.22c-0.6-0.41-1.29-0.22-1.94-0.25c-0.81-0.03-0.9-0.56-0.93-1.17c-0.03-0.78,0.18-1.03,0.95-1.1
		c0.29-0.03,0.58,0,0.87-0.02c0.29-0.01,0.57-0.04,0.83-0.07c0.6-0.43,0.37-1.07,0.47-1.61c0.53-2.84,1.88-4.2,4.71-4.71
		c0.47-0.09,0.95-0.17,1.43-0.22c1.56-0.18,2.28,0.78,1.74,2.27c-0.16,0.44-0.53,0.52-0.87,0.67c-2.12,0.92-2.12,0.92-2.11,3.42
		c0.62,0.38,1.31,0.22,1.97,0.26c0.66,0.04,1.09,0.27,1.07,1.03c-0.02,0.89-0.22,1.13-1.2,1.24c-0.56,0.07-1.16-0.09-1.7,0.25
		c-0.56,0.54-0.31,1.25-0.32,1.88c-0.02,3.57,0,7.14-0.02,10.7c-0.01,1.62-0.09,1.7-1.56,1.7c-3.42,0-3.18,0.35-3.18-3.03
		c0-3.09,0.01-6.17-0.01-9.26C357.5,393.55,357.64,392.87,357.3,392.22z"/>
	<path class="st9" d="M327.21,406.3c-0.82,0.38-1.7,0.2-2.55,0.2c-1.9,0-1.93-0.02-1.94-1.96c-0.02-3.38,0-6.76-0.01-10.13
		c0-0.76,0.14-1.54-0.26-2.33c-0.57-0.03-1.14-0.06-1.71-0.11c-0.92-0.08-1.11-0.32-1.1-1.28c0-0.53,0.14-0.96,0.77-0.98
		c0.66-0.02,1.32,0,2.07,0c0.19-0.99,0.31-1.83,0.52-2.64c0.5-1.96,1.8-3.16,3.73-3.63c0.93-0.23,1.9-0.32,2.86-0.41
		c0.69-0.07,1.01,0.29,1.07,1.04c0.11,1.34,0.06,1.56-1.37,2.05c-1.09,0.37-1.51,1.09-1.72,2.09c-0.2,0.97,0.11,1.38,1.14,1.48
		c0.38,0.04,0.77,0.02,1.16,0.05c0.6,0.05,0.79,0.43,0.79,0.98c0,0.5-0.07,0.96-0.61,1.18c-0.09,0.03-0.19,0.03-0.29,0.05
		c-0.65,0.12-1.41-0.17-1.94,0.33c-0.64,0.61-0.3,1.46-0.31,2.2c-0.04,3.18-0.01,6.37-0.02,9.56
		C327.49,404.78,327.64,405.57,327.21,406.3z"/>
	<path class="st11" d="M429.38,397.88c0-2.31-0.02-4.62,0.01-6.93c0.01-1.05,0.18-1.22,1.12-1.24c0.96-0.02,1.93,0,2.89,0.02
		c0.44,0.01,0.68,0.27,0.77,0.69c0.11,0.52,0.48,0.53,0.84,0.32c1.46-0.86,3.02-1.22,4.71-1.05c0.61,0.06,1.37,1.43,1.08,2.01
		c-0.07,0.15-0.28,0.3-0.44,0.31c-0.67,0.06-1.35,0.01-2.01,0.1c-2.54,0.37-4.11,2.14-4.16,4.72c-0.05,2.5,0,5.01-0.02,7.51
		c-0.01,2.15-0.03,2.15-2.3,2.15c-0.39,0-0.77,0.01-1.16-0.01c-1.14-0.05-1.3-0.18-1.31-1.39
		C429.36,402.7,429.38,400.29,429.38,397.88z"/>
	<path class="st11" d="M126.87,398.39c0,2.22,0.02,4.43-0.01,6.65c-0.02,1.32-0.15,1.46-1.56,1.45c-3.53-0.03-3.24,0.53-3.25-3.22
		c-0.01-3.95-0.01-7.9,0.01-11.86c0.01-1.63,0.08-1.72,1.54-1.71c3.66,0.02,3.24-0.49,3.26,3.19
		C126.88,394.73,126.87,396.56,126.87,398.39C126.87,398.39,126.87,398.39,126.87,398.39z"/>
	<path class="st11" d="M294.78,397.91c0,2.5,0.01,5,0,7.49c0,0.66-0.3,1.09-1.03,1.09c-0.29,0-0.58,0.01-0.87,0.01
		c-2.96-0.02-2.83,0.3-2.82-2.78c0.01-4.23-0.01-8.46,0.01-12.68c0.01-1.23,0.11-1.29,1.32-1.34c0.1,0,0.19,0,0.29,0
		c3.49,0.04,3.08-0.41,3.11,3.03c0.01,1.73,0,3.46,0,5.19C294.79,397.91,294.78,397.91,294.78,397.91z"/>
	<path class="st10" d="M295.21,385.83c-0.08,1.47-1.37,2.7-2.83,2.67c-1.46-0.02-2.74-1.31-2.75-2.75
		c-0.01-1.53,1.47-2.92,2.99-2.81C294.08,383.04,295.29,384.39,295.21,385.83z"/>
	<path class="st10" d="M127.16,385.58c0.06,1.6-1.03,2.83-2.59,2.92c-1.51,0.08-2.8-1.1-2.87-2.65c-0.07-1.52,1.09-2.83,2.61-2.92
		C125.85,382.83,127.1,384,127.16,385.58z"/>
	<path class="st3" d="M110.16,361.87c3.02-0.01,6.05-0.06,9.07,0.01c1.07,0.02,1.77-0.45,2.42-1.15c0.21,0,0.42-0.01,0.63-0.01
		c0.11,0.81,0.6,1.14,1.39,1.13c1.93-0.01,3.86,0,5.79,0c1.25,0,2.51,0.01,3.76,0.01c-0.22,0.38-0.58,0.44-0.98,0.44
		c-7.04,0-14.08,0-21.12,0C110.72,362.31,110.36,362.28,110.16,361.87z"/>
	<path class="st3" d="M69.52,361.88c3.19-0.01,6.37-0.03,9.56-0.02c0.79,0,1.28-0.32,1.4-1.13c0.39,0.03,0.79,0.06,1.18,0.09
		c0.1,0.49,0.3,0.94,0.85,0.98c0.85,0.07,1.7,0.05,2.55,0.06c2.17,0.01,4.35,0,6.52,0c-0.2,0.39-0.56,0.46-0.96,0.46
		c-6.71,0-13.42,0-20.13,0C70.11,362.31,69.75,362.24,69.52,361.88z"/>
	<path class="st3" d="M168.68,361.86c3.36,0,6.71,0.01,10.07,0c0.75,0,1.56,0.17,2.15-0.51c0.25,0.18,0.37,0.44,0.2,0.7
		c-0.09,0.13-0.32,0.24-0.49,0.24c-3.85,0-7.7-0.02-11.55-0.05C168.94,362.23,168.81,361.99,168.68,361.86z"/>
	<path class="st3" d="M121.5,321.25c-3.98,0-7.96,0-11.93,0c0.14-0.25,0.29-0.5,0.62-0.5c3.57,0,7.15-0.01,10.72-0.01
		C121.26,320.74,121.4,320.98,121.5,321.25z"/>
	<path class="st3" d="M157.12,321.23c-4.01,0.01-8.01,0.02-12.02,0.03c0.21-0.17,0.41-0.48,0.62-0.48
		c3.59-0.03,7.19-0.02,10.79-0.03C156.84,320.74,156.97,320.99,157.12,321.23z"/>
	<path class="st3" d="M50.21,321.25c-3.54,0-7.09,0.01-10.63,0.01c0.09-0.28,0.25-0.52,0.57-0.52c3.15,0,6.29,0.01,9.44,0.02
		C49.92,320.76,50.07,321.01,50.21,321.25z"/>
	<path class="st3" d="M39.72,361.85c3.29,0.01,6.59,0.01,9.88,0.02c-0.16,0.24-0.33,0.43-0.66,0.43c-2.86,0-5.72,0.01-8.58,0
		C40.05,362.3,39.83,362.14,39.72,361.85z"/>
	<path class="st3" d="M49.69,340.4c-0.85-0.95-0.82-1.91-0.05-2.88C49.91,338.47,49.91,339.43,49.69,340.4z"/>
	<path class="st3" d="M109.46,336.18c0.03-0.54-0.02-1.11,0.4-1.54c0.12-0.12,0.32-0.24,0.46-0.22c0.12,0.02,0.26,0.24,0.29,0.39
		c0.11,0.55,0.07,1.09-0.43,1.47C109.98,336.08,109.73,336.05,109.46,336.18z"/>
	<path class="st3" d="M49.62,335.15c-0.33-0.23-0.49-0.55-0.43-0.95c0.04-0.3,0.22-0.52,0.53-0.5c0.15,0.01,0.39,0.15,0.42,0.27
		c0.1,0.35,0.12,0.73,0.16,1.09C50.08,335.09,49.85,335.12,49.62,335.15z"/>
	<path class="st3" d="M162.89,330.47c-0.74-0.25-1.1-0.79-1.16-1.56c0.53,0.23,0.81-0.15,1.11-0.46
		C162.86,329.13,162.87,329.8,162.89,330.47z"/>
	<path class="st3" d="M63.1,338.04c-0.46-0.13-0.62-0.48-0.68-0.91C62.79,337.33,63.07,337.6,63.1,338.04z"/>
	<path class="st3" d="M142.66,325.48c-0.04,0.42-0.17,0.78-0.57,0.98C142.05,326,142.32,325.72,142.66,325.48z"/>
	<path class="st3" d="M100.84,333.6c-0.04,0.44-0.19,0.81-0.65,0.97C100.2,334.11,100.45,333.81,100.84,333.6z"/>
	<path class="st3" d="M106.08,326.14c-0.05,0.41-0.19,0.75-0.61,0.9C105.45,326.59,105.73,326.34,106.08,326.14z"/>
	<path class="st3" d="M160.6,327.04c-0.46-0.21-0.59-0.6-0.61-1.06C160.38,326.23,160.61,326.56,160.6,327.04z"/>
	<path class="st3" d="M138,333.54c-0.02,0.45-0.15,0.83-0.59,1.05C137.39,334.12,137.62,333.79,138,333.54z"/>
	<path class="st3" d="M55.53,328.18c-0.45-0.14-0.61-0.49-0.66-0.92C55.24,327.46,55.51,327.73,55.53,328.18z"/>
	<path class="st3" d="M133.94,340.55c-0.03,0.43-0.16,0.8-0.58,1.01C133.34,341.1,133.59,340.8,133.94,340.55z"/>
	<path class="st3" d="M104.91,327.82c-0.04,0.43-0.2,0.79-0.64,0.95C104.27,328.31,104.53,328.02,104.91,327.82z"/>
	<path class="st3" d="M169.22,341.57c-0.38-0.19-0.5-0.53-0.55-0.92C168.99,340.88,169.28,341.12,169.22,341.57z"/>
	<path class="st3" d="M161.67,328.8c-0.38-0.19-0.5-0.53-0.55-0.92C161.44,328.11,161.73,328.35,161.67,328.8z"/>
	<path class="st3" d="M67.11,343.28c-0.42-0.13-0.58-0.46-0.63-0.86C66.82,342.61,67.12,342.84,67.11,343.28z"/>
	<path class="st3" d="M93.88,343.49c-0.04,0.43-0.2,0.79-0.65,0.95C93.24,343.98,93.51,343.7,93.88,343.49z"/>
	<path class="st3" d="M132.21,343.53c-0.04,0.39-0.16,0.74-0.54,0.94C131.62,344.02,131.89,343.76,132.21,343.53z"/>
	<path class="st3" d="M68.88,345.6c-0.43-0.14-0.6-0.48-0.65-0.89C68.58,344.9,68.86,345.15,68.88,345.6z"/>
	<path class="st3" d="M131.62,344.6c-0.03,0.43-0.16,0.81-0.58,1.02C131.01,345.15,131.26,344.85,131.62,344.6z"/>
	<path class="st3" d="M171.6,345.62c-0.42-0.2-0.55-0.57-0.59-1C171.37,344.86,171.62,345.16,171.6,345.62z"/>
	<path class="st3" d="M70.64,347.91c-0.46-0.14-0.62-0.49-0.67-0.92C70.34,347.19,70.61,347.46,70.64,347.91z"/>
	<path class="st3" d="M90.98,347.6c-0.05,0.41-0.2,0.75-0.62,0.91C90.35,348.06,90.63,347.8,90.98,347.6z"/>
	<path class="st3" d="M129.89,347.58c-0.04,0.4-0.16,0.76-0.56,0.95C129.3,348.08,129.56,347.81,129.89,347.58z"/>
	<path class="st3" d="M129.29,348.64c-0.03,0.45-0.16,0.83-0.59,1.04C128.68,349.21,128.92,348.89,129.29,348.64z"/>
	<path class="st3" d="M89.81,349.27c-0.04,0.44-0.19,0.81-0.66,0.97C89.16,349.78,89.43,349.49,89.81,349.27z"/>
	<path class="st3" d="M128.16,350.56c-0.05,0.36-0.16,0.69-0.51,0.88C127.58,351.01,127.85,350.77,128.16,350.56z"/>
	<path class="st3" d="M175.05,351.43c-0.39-0.2-0.52-0.55-0.57-0.95C174.81,350.72,175.08,350.99,175.05,351.43z"/>
	<path class="st3" d="M88.08,351.71c-0.05,0.4-0.19,0.73-0.6,0.87C87.45,352.13,87.74,351.9,88.08,351.71z"/>
	<path class="st3" d="M127.56,351.62c-0.04,0.41-0.17,0.76-0.56,0.96C126.96,352.12,127.23,351.85,127.56,351.62z"/>
	<path class="st3" d="M175.7,352.57c-0.46-0.2-0.59-0.6-0.61-1.05C175.47,351.77,175.71,352.1,175.7,352.57z"/>
	<path class="st3" d="M74.66,353.15c-0.43-0.13-0.58-0.46-0.64-0.87C74.38,352.47,74.67,352.7,74.66,353.15z"/>
	<path class="st3" d="M86.91,353.38c-0.05,0.42-0.2,0.77-0.64,0.93C86.28,353.86,86.55,353.59,86.91,353.38z"/>
	<path class="st3" d="M176.77,354.34c-0.38-0.19-0.5-0.53-0.55-0.92C176.54,353.64,176.82,353.89,176.77,354.34z"/>
	<path class="st3" d="M95.05,341.81c-0.05,0.41-0.19,0.75-0.61,0.9C94.41,342.26,94.7,342.02,95.05,341.81z"/>
	<path class="st3" d="M76.43,355.46c-0.44-0.14-0.6-0.48-0.66-0.9C76.13,354.76,76.41,355.02,76.43,355.46z"/>
	<path class="st3" d="M177.42,355.48c-0.44-0.21-0.57-0.59-0.6-1.03C177.2,354.7,177.44,355.01,177.42,355.48z"/>
	<path class="st3" d="M125.23,355.65c-0.04,0.42-0.17,0.79-0.58,1C124.63,356.19,124.89,355.9,125.23,355.65z"/>
	<path class="st3" d="M78.2,357.77c-0.46-0.14-0.63-0.49-0.68-0.93C77.9,357.04,78.17,357.32,78.2,357.77z"/>
	<path class="st3" d="M84.01,357.49c-0.05,0.4-0.19,0.74-0.61,0.89C83.38,357.93,83.67,357.69,84.01,357.49z"/>
	<path class="st3" d="M179.15,358.39c-0.42-0.2-0.56-0.57-0.59-1C178.91,357.63,179.17,357.92,179.15,358.39z"/>
	<path class="st3" d="M97.95,337.71c-0.05,0.42-0.2,0.77-0.63,0.93C97.31,338.19,97.59,337.92,97.95,337.71z"/>
	<path class="st3" d="M82.84,359.16c-0.05,0.43-0.2,0.79-0.65,0.94C82.21,359.65,82.47,359.37,82.84,359.16z"/>
	<path class="st3" d="M122.9,359.68c-0.03,0.45-0.17,0.83-0.62,1.02C122.26,360.22,122.55,359.93,122.9,359.68z"/>
	<path class="st3" d="M180.88,361.29c-0.41-0.2-0.54-0.56-0.59-0.98C180.64,360.56,180.9,360.84,180.88,361.29z"/>
	<path class="st3" d="M163.4,331.7c-0.4-0.28-0.49-0.68-0.43-1.13c0.15-0.04,0.3-0.05,0.45-0.04
		C163.41,330.92,163.4,331.31,163.4,331.7z"/>
	<path class="st3" d="M135.67,337.58c-0.02,0.46-0.15,0.85-0.6,1.07C135.06,338.17,135.29,337.83,135.67,337.58z"/>
	<path class="st3" d="M173.33,348.52c-0.4-0.2-0.54-0.56-0.58-0.97C173.08,347.79,173.35,348.07,173.33,348.52z"/>
	<path class="st3" d="M108.98,322.03c-0.05,0.42-0.2,0.77-0.63,0.94C108.35,322.52,108.61,322.24,108.98,322.03z"/>
	<path class="st3" d="M167.5,338.66c-0.39-0.2-0.52-0.55-0.57-0.95C167.26,337.95,167.53,338.22,167.5,338.66z"/>
	<path class="st3" d="M158.23,322.99c-0.4-0.2-0.54-0.55-0.57-0.96C158,322.26,158.26,322.54,158.23,322.99z"/>
	<path class="st3" d="M140.33,329.51c-0.03,0.44-0.16,0.81-0.59,1.02C139.71,330.06,139.97,329.75,140.33,329.51z"/>
	<path class="st3" d="M102.01,331.92c-0.05,0.41-0.2,0.76-0.62,0.92C101.39,332.39,101.66,332.13,102.01,331.92z"/>
	<path class="st3" d="M64.84,340.36c-0.47-0.14-0.63-0.5-0.68-0.94C64.55,339.62,64.82,339.9,64.84,340.36z"/>
	<path class="st3" d="M169.88,342.71c-0.44-0.2-0.57-0.59-0.6-1.03C169.64,341.93,169.89,342.24,169.88,342.71z"/>
	<path class="st3" d="M165.78,335.76c-0.4-0.2-0.54-0.56-0.58-0.97C165.54,335.02,165.81,335.3,165.78,335.76z"/>
	<path class="st3" d="M164.05,332.85c-0.42-0.2-0.55-0.58-0.59-1.01C163.82,332.09,164.07,332.39,164.05,332.85z"/>
	<path class="st3" d="M57.3,330.49c-0.47-0.14-0.63-0.5-0.68-0.94C56.99,329.76,57.27,330.04,57.3,330.49z"/>
	<path class="st3" d="M107.8,323.71c-0.04,0.46-0.19,0.83-0.67,0.99C107.16,324.23,107.41,323.92,107.8,323.71z"/>
	<path class="st3" d="M168.15,339.81c-0.45-0.21-0.59-0.6-0.61-1.06C167.93,339,168.16,339.33,168.15,339.81z"/>
	<path class="st3" d="M59.55,333.42c-0.42-0.13-0.57-0.46-0.63-0.86C59.28,332.74,59.56,332.97,59.55,333.42z"/>
	<path class="st3" d="M61.32,335.73c-0.43-0.14-0.59-0.47-0.65-0.88C61.03,335.04,61.32,335.28,61.32,335.73z"/>
	<path class="st3" d="M138.6,332.5c-0.04,0.4-0.16,0.75-0.56,0.94C138.01,333,138.28,332.73,138.6,332.5z"/>
	<path class="st3" d="M136.27,336.53c-0.04,0.41-0.17,0.77-0.57,0.97C135.67,337.05,135.94,336.77,136.27,336.53z"/>
	<path class="st3" d="M53.76,325.87c-0.43-0.13-0.58-0.46-0.64-0.87C53.47,325.19,53.77,325.42,53.76,325.87z"/>
	<path class="st3" d="M159.95,325.89c-0.39-0.2-0.52-0.55-0.57-0.95C159.71,325.18,159.98,325.45,159.95,325.89z"/>
	<path class="st3" d="M140.93,328.45c-0.04,0.39-0.16,0.73-0.54,0.92C140.33,328.93,140.61,328.68,140.93,328.45z"/>
	<path class="st3" d="M123.51,358.63c-0.05,0.39-0.16,0.74-0.55,0.93C122.9,359.11,123.19,358.86,123.51,358.63z"/>
	<path class="st3" d="M67.59,343.89c-0.16-0.19-0.31-0.39-0.47-0.58C67.44,343.38,67.61,343.56,67.59,343.89z"/>
	<path class="st3" d="M144.87,321.69c-0.15,0.24-0.3,0.47-0.44,0.71C144.41,322.05,144.55,321.82,144.87,321.69z"/>
	<path class="st3" d="M51.99,323.55c-0.17-0.22-0.35-0.44-0.52-0.66C51.81,322.99,51.98,323.21,51.99,323.55z"/>
	<path class="st3" d="M68.06,344.47c-0.13-0.16-0.26-0.31-0.39-0.47C67.93,344.05,68.08,344.2,68.06,344.47z"/>
	<path class="st3" d="M170.94,344.47c-0.14-0.22-0.29-0.45-0.43-0.67C170.81,343.92,170.97,344.14,170.94,344.47z"/>
	<path class="st3" d="M108.33,322.99c-0.15,0.2-0.3,0.39-0.45,0.59C107.86,323.25,108.02,323.06,108.33,322.99z"/>
	<path class="st3" d="M93.22,344.45c-0.15,0.2-0.31,0.4-0.46,0.6C92.74,344.71,92.91,344.52,93.22,344.45z"/>
	<path class="st3" d="M52.48,324.16c-0.15-0.19-0.3-0.38-0.46-0.56C52.33,323.66,52.49,323.83,52.48,324.16z"/>
	<path class="st3" d="M143.76,323.58c-0.12,0.18-0.24,0.36-0.36,0.53C143.35,323.82,143.5,323.66,143.76,323.58z"/>
	<path class="st3" d="M92.69,345.17c-0.04,0.18-0.15,0.31-0.31,0.4C92.34,345.33,92.46,345.2,92.69,345.17z"/>
	<path class="st3" d="M69.84,346.8c-0.14-0.17-0.27-0.34-0.41-0.51C69.7,346.35,69.85,346.51,69.84,346.8z"/>
	<path class="st3" d="M92.05,346.13c-0.04,0.31-0.2,0.53-0.49,0.65C91.56,346.44,91.72,346.23,92.05,346.13z"/>
	<path class="st3" d="M52.94,324.74c-0.12-0.15-0.24-0.3-0.37-0.44C52.82,324.34,52.96,324.47,52.94,324.74z"/>
	<path class="st3" d="M91.52,346.84c-0.14,0.18-0.27,0.36-0.41,0.53C91.08,347.07,91.24,346.91,91.52,346.84z"/>
	<path class="st3" d="M130.39,346.75c-0.14,0.21-0.27,0.42-0.41,0.63C129.94,347.05,130.1,346.85,130.39,346.75z"/>
	<path class="st3" d="M172.66,347.38c-0.14-0.21-0.28-0.43-0.42-0.64C172.55,346.84,172.71,347.04,172.66,347.38z"/>
	<path class="st3" d="M159.29,324.74c-0.14-0.21-0.27-0.41-0.41-0.62C159.17,324.23,159.33,324.42,159.29,324.74z"/>
	<path class="st3" d="M143.15,324.65c-0.14,0.22-0.28,0.44-0.42,0.66C142.7,324.99,142.85,324.77,143.15,324.65z"/>
	<path class="st3" d="M66.28,342.14c-0.16-0.1-0.28-0.24-0.35-0.42C66.17,341.76,66.29,341.89,66.28,342.14z"/>
	<path class="st3" d="M71.61,349.12c-0.14-0.18-0.29-0.36-0.43-0.54C71.46,348.64,71.62,348.81,71.61,349.12z"/>
	<path class="st3" d="M90.33,348.54c-0.14,0.19-0.29,0.38-0.43,0.57C89.88,348.79,90.04,348.62,90.33,348.54z"/>
	<path class="st3" d="M106.62,325.4c-0.13,0.17-0.26,0.34-0.39,0.5C106.2,325.61,106.35,325.46,106.62,325.4z"/>
	<path class="st3" d="M71.96,349.61c-0.11-0.08-0.18-0.18-0.22-0.3c0,0,0.21,0.08,0.21,0.08L71.96,349.61z"/>
	<path class="st3" d="M54.25,326.47c-0.16-0.2-0.32-0.39-0.48-0.59C54.09,325.95,54.26,326.14,54.25,326.47z"/>
	<path class="st3" d="M128.67,349.72c-0.13,0.19-0.25,0.37-0.38,0.56C128.25,349.98,128.41,349.81,128.67,349.72z"/>
	<path class="st3" d="M174.38,350.28c-0.14-0.2-0.27-0.41-0.41-0.61C174.27,349.77,174.42,349.96,174.38,350.28z"/>
	<path class="st3" d="M72.9,350.83c-0.17-0.22-0.35-0.43-0.52-0.65C72.71,350.28,72.88,350.49,72.9,350.83z"/>
	<path class="st3" d="M89.15,350.24c-0.16,0.21-0.31,0.41-0.47,0.62C88.67,350.51,88.83,350.31,89.15,350.24z"/>
	<path class="st3" d="M54.73,327.06c-0.14-0.16-0.27-0.33-0.41-0.49C54.59,326.63,54.74,326.78,54.73,327.06z"/>
	<path class="st3" d="M105.44,327.08c-0.14,0.19-0.28,0.37-0.43,0.56C104.99,327.33,105.15,327.15,105.44,327.08z"/>
	<path class="st3" d="M73.38,351.44c-0.15-0.19-0.3-0.37-0.45-0.56C73.23,350.94,73.39,351.12,73.38,351.44z"/>
	<path class="st3" d="M88.62,350.95c-0.12,0.16-0.25,0.32-0.37,0.48C88.22,351.16,88.37,351.01,88.62,350.95z"/>
	<path class="st3" d="M73.84,352.01c-0.12-0.14-0.24-0.29-0.36-0.43C73.73,351.62,73.86,351.75,73.84,352.01z"/>
	<path class="st3" d="M161.01,327.65c-0.13-0.2-0.26-0.39-0.39-0.59C160.89,327.15,161.05,327.33,161.01,327.65z"/>
	<path class="st3" d="M141.43,327.62c-0.13,0.2-0.26,0.4-0.4,0.6C141,327.91,141.15,327.72,141.43,327.62z"/>
	<path class="st3" d="M56.5,329.39c-0.14-0.18-0.29-0.35-0.43-0.53C56.36,328.92,56.52,329.08,56.5,329.39z"/>
	<path class="st3" d="M104.26,328.78c-0.15,0.2-0.31,0.4-0.46,0.6C103.78,329.04,103.94,328.85,104.26,328.78z"/>
	<path class="st3" d="M87.44,352.63c-0.14,0.18-0.28,0.37-0.42,0.55C87,352.87,87.16,352.7,87.44,352.63z"/>
	<path class="st3" d="M176.1,353.18c-0.13-0.2-0.26-0.39-0.39-0.59C175.99,352.69,176.15,352.87,176.1,353.18z"/>
	<path class="st3" d="M75.15,353.75c-0.16-0.19-0.31-0.39-0.47-0.58C74.99,353.24,75.16,353.42,75.15,353.75z"/>
	<path class="st3" d="M103.73,329.5c-0.04,0.19-0.15,0.32-0.32,0.41C103.37,329.66,103.49,329.53,103.73,329.5z"/>
	<path class="st3" d="M57.79,331.1c-0.29-0.11-0.46-0.32-0.51-0.63C57.61,330.55,57.78,330.77,57.79,331.1z"/>
	<path class="st3" d="M75.62,354.34c-0.13-0.16-0.26-0.32-0.4-0.48C75.49,353.91,75.64,354.06,75.62,354.34z"/>
	<path class="st3" d="M103.08,330.45c-0.04,0.32-0.2,0.53-0.49,0.66C102.59,330.77,102.75,330.55,103.08,330.45z"/>
	<path class="st3" d="M58.27,331.7c-0.15-0.18-0.3-0.37-0.44-0.55C58.12,331.22,58.28,331.39,58.27,331.7z"/>
	<path class="st3" d="M86.26,354.33c-0.15,0.2-0.3,0.39-0.45,0.59C85.79,354.59,85.95,354.4,86.26,354.33z"/>
	<path class="st3" d="M102.55,331.17c-0.14,0.18-0.27,0.36-0.41,0.54C102.11,331.4,102.27,331.24,102.55,331.17z"/>
	<path class="st3" d="M85.73,355.07c-0.04,0.15-0.12,0.27-0.25,0.35C85.42,355.21,85.51,355.09,85.73,355.07z"/>
	<path class="st3" d="M125.73,354.83c-0.14,0.22-0.28,0.45-0.43,0.67C125.28,355.17,125.43,354.95,125.73,354.83z"/>
	<path class="st3" d="M58.73,332.28c-0.17-0.1-0.28-0.23-0.35-0.41C58.62,331.9,58.75,332.03,58.73,332.28z"/>
	<path class="st3" d="M177.8,356.04c-0.12-0.17-0.24-0.35-0.36-0.52C177.7,355.6,177.85,355.75,177.8,356.04z"/>
	<path class="st3" d="M77.4,356.66c-0.14-0.17-0.28-0.35-0.42-0.52C77.26,356.2,77.41,356.37,77.4,356.66z"/>
	<path class="st3" d="M85.09,356.01c-0.16,0.21-0.32,0.43-0.48,0.64C84.6,356.32,84.77,356.11,85.09,356.01z"/>
	<path class="st3" d="M139.1,331.66c-0.14,0.21-0.27,0.41-0.41,0.62C138.65,331.96,138.81,331.77,139.1,331.66z"/>
	<path class="st3" d="M84.56,356.73c-0.13,0.17-0.26,0.34-0.39,0.51C84.14,356.95,84.29,356.8,84.56,356.73z"/>
	<path class="st3" d="M178.49,357.24c-0.14-0.22-0.29-0.44-0.43-0.67C178.36,356.69,178.52,356.91,178.49,357.24z"/>
	<path class="st3" d="M101.37,332.87c-0.15,0.19-0.29,0.38-0.44,0.57C100.91,333.12,101.07,332.95,101.37,332.87z"/>
	<path class="st3" d="M60.04,334.02c-0.15-0.19-0.31-0.38-0.46-0.57C59.88,333.52,60.05,333.7,60.04,334.02z"/>
	<path class="st3" d="M78.69,358.38c-0.17-0.21-0.34-0.42-0.51-0.62C78.51,357.84,78.68,358.05,78.69,358.38z"/>
	<path class="st3" d="M124.01,357.8c-0.13,0.2-0.27,0.4-0.4,0.6C123.57,358.08,123.72,357.9,124.01,357.8z"/>
	<path class="st3" d="M79.16,358.98c-0.15-0.18-0.29-0.36-0.44-0.54C79.02,358.5,79.18,358.67,79.16,358.98z"/>
	<path class="st3" d="M83.37,358.42c-0.14,0.19-0.28,0.37-0.42,0.56C82.92,358.67,83.08,358.5,83.37,358.42z"/>
	<path class="st3" d="M60.5,334.61c-0.13-0.15-0.25-0.3-0.38-0.46C60.38,334.2,60.52,334.34,60.5,334.61z"/>
	<path class="st3" d="M79.53,359.48c-0.12-0.08-0.2-0.18-0.25-0.32c0,0,0.22,0.09,0.22,0.09L79.53,359.48z"/>
	<path class="st3" d="M165.11,334.61c-0.14-0.21-0.28-0.43-0.42-0.64C164.99,334.08,165.15,334.28,165.11,334.61z"/>
	<path class="st3" d="M100.19,334.57c-0.16,0.2-0.31,0.41-0.47,0.61C99.7,334.84,99.86,334.64,100.19,334.57z"/>
	<path class="st3" d="M180.21,360.15c-0.14-0.21-0.28-0.43-0.42-0.64C180.1,359.61,180.25,359.81,180.21,360.15z"/>
	<path class="st3" d="M80.46,360.7c-0.3-0.12-0.47-0.34-0.52-0.66C80.27,360.13,80.44,360.35,80.46,360.7z"/>
	<path class="st3" d="M126.34,353.76c-0.12,0.18-0.24,0.36-0.36,0.54C125.93,354,126.08,353.84,126.34,353.76z"/>
	<path class="st3" d="M99.66,335.28c-0.04,0.2-0.16,0.35-0.34,0.44C99.28,335.45,99.41,335.32,99.66,335.28z"/>
	<path class="st3" d="M50.62,335.82c0.15,0.13,0.23,0.29,0.24,0.48C50.63,336.21,50.51,336.08,50.62,335.82z"/>
	<path class="st3" d="M61.81,336.34c-0.16-0.2-0.32-0.4-0.48-0.59C61.65,335.81,61.81,336.01,61.81,336.34z"/>
	<path class="st3" d="M62.28,336.93c-0.14-0.17-0.27-0.33-0.41-0.5C62.14,336.49,62.29,336.64,62.28,336.93z"/>
	<path class="st3" d="M99.01,336.24c-0.17,0.22-0.33,0.45-0.5,0.67C98.52,336.57,98.68,336.34,99.01,336.24z"/>
	<path class="st3" d="M98.48,336.96c-0.14,0.18-0.28,0.36-0.42,0.55C98.04,337.2,98.2,337.04,98.48,336.96z"/>
	<path class="st3" d="M108.91,337.4c0.01-0.14,0.06-0.27,0.16-0.37c0,0,0.04,0.23,0.04,0.23L108.91,337.4z"/>
	<path class="st3" d="M166.84,337.51c-0.14-0.21-0.27-0.42-0.41-0.62C166.73,336.99,166.88,337.19,166.84,337.51z"/>
	<path class="st3" d="M64.06,339.25c-0.14-0.18-0.29-0.36-0.43-0.54C63.91,338.78,64.07,338.94,64.06,339.25z"/>
	<path class="st3" d="M97.3,338.66c-0.15,0.2-0.3,0.39-0.45,0.59C96.82,338.92,96.99,338.73,97.3,338.66z"/>
	<path class="st3" d="M135.05,338.67c-0.12,0.18-0.24,0.36-0.36,0.53C134.64,338.91,134.79,338.75,135.05,338.67z"/>
	<path class="st3" d="M96.76,339.4c-0.04,0.15-0.13,0.27-0.26,0.36C96.45,339.54,96.54,339.42,96.76,339.4z"/>
	<path class="st3" d="M134.44,339.74c-0.14,0.22-0.29,0.44-0.43,0.67C133.98,340.08,134.14,339.86,134.44,339.74z"/>
	<path class="st3" d="M168.55,340.41c-0.13-0.2-0.26-0.39-0.39-0.59C168.44,339.92,168.6,340.1,168.55,340.41z"/>
	<path class="st3" d="M65.34,340.97c-0.29-0.11-0.46-0.32-0.51-0.63C65.16,340.42,65.33,340.63,65.34,340.97z"/>
	<path class="st3" d="M65.82,341.57c-0.15-0.19-0.3-0.37-0.45-0.55C65.67,341.08,65.84,341.25,65.82,341.57z"/>
	<path class="st3" d="M95.58,341.07c-0.13,0.17-0.26,0.34-0.39,0.51C95.17,341.28,95.32,341.13,95.58,341.07z"/>
	<path class="st3" d="M136.77,335.7c-0.14,0.21-0.28,0.43-0.41,0.64C136.32,336.02,136.47,335.81,136.77,335.7z"/>
	<path class="st3" d="M50.71,321.84c-0.15-0.17-0.29-0.35-0.44-0.52C50.57,321.37,50.72,321.54,50.71,321.84z"/>
	<path class="st3" d="M109.51,321.32c-0.14,0.17-0.28,0.35-0.42,0.52C109.07,321.54,109.22,321.37,109.51,321.32z"/>
	<path class="st3" d="M51.08,322.34c-0.12-0.08-0.21-0.18-0.25-0.32c0,0,0.22,0.09,0.22,0.09L51.08,322.34z"/>
	<path class="st3" d="M94.41,342.75c-0.14,0.19-0.28,0.37-0.42,0.56C93.96,343,94.12,342.83,94.41,342.75z"/>
	<path class="st3" d="M132.72,342.71c-0.13,0.2-0.27,0.4-0.4,0.6C132.28,342.99,132.44,342.81,132.72,342.71z"/>
	<path class="st3" d="M170.26,343.27c-0.12-0.17-0.24-0.35-0.36-0.52C170.15,342.83,170.3,342.98,170.26,343.27z"/>
	<path class="st3" d="M82.19,360.12c-0.16,0.2-0.31,0.4-0.47,0.6C81.71,360.38,81.87,360.19,82.19,360.12z"/>
</g>
</svg>
