<svg id="Layer_1" data-name="Layer 1" xmlns="http://www.w3.org/2000/svg" viewBox="0 0 516.98 378.28"><defs><style>.cls-1{fill:#002b5b;}.cls-2{fill:#91e2cf;}</style></defs><path class="cls-1" d="M293.5,268.93a4.17,4.17,0,0,1-2.3.28c-24.58,0-49.16.26-73.74-.06a116.42,116.42,0,0,1-68.68-23.1c-25.08-18.39-40.73-43-47.26-73.38A113.52,113.52,0,0,1,99.18,143,120.8,120.8,0,0,1,187.46,32.18a109.14,109.14,0,0,1,18.19-3.56,33.64,33.64,0,0,1,3.48-.15h81.28c3.68,0,3.26-.37,3.27,3.23q0,13.35,0,26.69c0,.68,0,1.35,0,2a.84.84,0,0,1-.84.94c-.48,0-1,0-1.45,0-5.81,0-11.61,0-17.42,0a6.08,6.08,0,0,1-3.29-.87,99.66,99.66,0,0,0-32.18-11.91,101.19,101.19,0,0,0-24.27-1.5,98.52,98.52,0,0,0-49.56,16.18c-23.57,15.53-38.46,37.18-44.22,64.84A101.54,101.54,0,0,0,227.49,249.73,100.24,100.24,0,0,0,269.62,237c.51-.28,1-.59,1.5-.87a1.45,1.45,0,0,0,.83-1.4c0-.58,0-1.16,0-1.74V131.18c0-.68,0-1.35,0-2,0-.2-.14-.3-.39-.28a.32.32,0,0,0-.23.13c-.31.7-.64,1.39-.9,2.11l-15.74,43q-4.08,11.16-8.17,22.31c-.85,2.32-.63,2.21-3,2.21-7.26,0-14.52,0-21.77,0-1.93,0-1.95,0-2.65-1.91q-6-16.32-11.94-32.65-6.12-16.74-12.22-33.48a4.33,4.33,0,0,0-1.15-2.1,9.22,9.22,0,0,0-.24,3.28q0,31.49,0,63c0,4.46.48,3.87-3.82,3.89-6,0-12,0-18,0-.77,0-1.55,0-2.32,0s-1-.45-1-1.12,0-1.16,0-1.74V109.55c0-3.16-.15-2.94,3-2.94h34.55a11.69,11.69,0,0,0,1.45,0c1.07-.13,1.57.47,1.92,1.36q2.34,6.09,4.69,12.17,8.81,22.85,17.63,45.69a6.58,6.58,0,0,0,1.37,2.73c.32-.7.64-1.33.89-2q10.94-28.55,21.85-57.1c1.24-3.24.64-2.84,4.05-2.84q15.39,0,30.77,0h2a1,1,0,0,1,1.13,1c0,.68,0,1.35,0,2v12.77q0,71.52,0,143A11,11,0,0,1,293.5,268.93Z" transform="translate(-39.14 -28.39)"/><path class="cls-2" d="M402.06,127.83c-1.09.64-1.1,1.49-1.35,2.18q-6.54,17.82-13,35.67l-11,30.23c-.2.54-.42,1.08-.61,1.63a1.35,1.35,0,0,1-1.3,1c-.58,0-1.16,0-1.74,0H351.8c-2.08.05-2.12-.25-2.72-1.88q-4.17-11.44-8.38-22.86-7.79-21.22-15.55-42.47a6.54,6.54,0,0,0-1.29-2.64,6.35,6.35,0,0,0-.33,3q0,11.75,0,23.5,0,38.59,0,77.19c0,3.87-.54,3.09,3.05,5.06a101.74,101.74,0,0,0,33.87,11.42,98.67,98.67,0,0,0,22.57.86,101.64,101.64,0,0,0,91.38-77.88A98,98,0,0,0,476.68,139c-2.45-24.85-12.59-46.07-30.43-63.49a99.52,99.52,0,0,0-50.33-26.58,97.73,97.73,0,0,0-19.87-2.09,100.7,100.7,0,0,0-50.23,13,10.14,10.14,0,0,1-5.46,1.47c-5.13-.12-10.26,0-15.39,0-.77,0-1.55,0-2.32,0a.88.88,0,0,1-.88-.93c0-.29,0-.58,0-.87v-29a11.25,11.25,0,0,1,.05-1.16.82.82,0,0,1,.74-.76,17.09,17.09,0,0,1,2-.11q41.22,0,82.45,0a61.77,61.77,0,0,1,12.34,1.65A119.07,119.07,0,0,1,450,53.38q33.54,26.5,43.32,68.19a114.9,114.9,0,0,1,2.79,34.57c-1.82,26.05-10.92,49.32-27.66,69.41-17.82,21.4-40.53,34.94-67.7,41a111.66,111.66,0,0,1-24.47,2.6q-35.28-.08-70.55,0c-.77,0-1.55,0-2.32,0-1.52-.05-1.59-.13-1.63-1.7,0-.68,0-1.35,0-2q0-77.48,0-155c0-4.34-.52-3.79,3.9-3.8q14.81,0,29.61,0c.68,0,1.36,0,2,0A1.69,1.69,0,0,1,339.2,108c.25.73.54,1.45.82,2.17q10.49,27.5,21,55c.41,1.08.85,2.15,1.28,3.21.85,0,.87-.67,1.06-1.17Q368.8,153.1,374.24,139q5.76-14.86,11.49-29.75c.1-.27.18-.55.29-.82.74-1.84.75-1.87,2.72-1.87h35.13c3.55,0,3.19-.25,3.21,3.35v.29q0,42.36,0,84.73c0,3.75.54,3.55-3.61,3.56H405.17c-.77,0-1.55,0-2.32-.08a.79.79,0,0,1-.75-.76c-.06-.87-.05-1.74-.05-2.61V130.94C402.06,130,402.06,129,402.06,127.83Z" transform="translate(-39.14 -28.39)"/><path class="cls-2" d="M508.44,361.75a9.65,9.65,0,0,1-3.17.18c-12.68,0-25.35,0-38,0-4.54,0-9.08.16-13.62.25-.68,0-1.36,0-2,0-1,.06-1.54-.53-2-1.36-1.86-3.39-3.76-6.75-5.65-10.13q-5.1-9.1-10.18-18.23a2.61,2.61,0,0,0-1.1-1.34,7.12,7.12,0,0,0-1.72,2.6q-7.2,12.92-14.37,25.85c-.28.51-.61,1-.86,1.51a1.84,1.84,0,0,1-1.87,1.09c-3.1,0-6.2.16-9.29-.05s-6.18-.15-9.27-.21c-.77,0-1.55,0-2.32,0-1.12-.05-1.25-.19-1.3-1.42,0-.77,0-1.55,0-2.32V337.28c-.65-.14-.74.45-.91.83a28.18,28.18,0,0,1-3.33,5.42c-4,5.35-7.93,10.73-11.94,16.07-2.06,2.74-1.2,2.29-4.76,2.32-2.42,0-4.84,0-7.26,0a2.74,2.74,0,0,1-2.48-1.12c-4.77-6.21-9.59-12.39-14.38-18.59a24.59,24.59,0,0,1-3.06-5.25,9.19,9.19,0,0,0-1.08-1.82c0,1.75-.07,3,0,4.18.42,6,.13,12,.22,18,0,1.16,0,2.32,0,3.48,0,.68-.34,1.1-1,1.1-2.81,0-5.61,0-8.42,0a1,1,0,0,1-1.12-1c0-.68,0-1.35,0-2V323.73c0-.68,0-1.35,0-2a.89.89,0,0,1,.9-.94c3,0,6,0,9,0a1.58,1.58,0,0,1,1.21.69c.49.6,1,1.21,1.43,1.83l21.55,28.08c.58.76,1.21,1.49,1.77,2.19.79-.1,1-.69,1.32-1.13l20.4-28.92c.17-.24.31-.49.48-.72,1.74-2.39,1.31-2,4-2s5.23,0,7.84,0c1.13,0,1.3.22,1.34,1.4,0,.77,0,1.55,0,2.32v35.67c.9.29,1-.44,1.28-.89q7-12,13.92-24.11c2.56-4.44,5.16-8.85,7.68-13.31a2.07,2.07,0,0,1,2.07-1.2c2.71.05,5.42,0,8.13,0s2.23-.34,3.65,2c2.14,3.56,4.22,7.16,6.34,10.74l15.36,25.95c.24.41.52.8.76,1.16.61-.05.62-.44.62-.82,0-2.9,0-5.8,0-8.7,0-1.85,0-1.87,2-1.88s3.68,0,5.51,0c.17,0,.34.15.56.26a14.78,14.78,0,0,1,.22,3.4.94.94,0,0,0,.89.95c.58.05,1.16,0,1.74,0h23.22c.48,0,1,0,1.45,0,1.09-.06,1.3-.25,1.31-1.43q0-3-.08-6.09c0-1.09-.27-1.27-1.43-1.32-.77,0-1.55,0-2.32,0H465.79c-2.63,0-2.6,0-2.6-2.51,0-6.38,0-12.77,0-19.15,0-.58,0-1.16.08-1.73a.77.77,0,0,1,.76-.72c.48,0,1-.06,1.45-.06H507a14,14,0,0,1,1.44.13c0,.35,0,.71.07,1.06q0,4.92.08,9.84a1,1,0,0,1-1,1.07h-7c-.73,0-1-.45-1-1.11,0-.87,0-1.74-.07-2.6a.88.88,0,0,0-.91-.91c-.58,0-1.16,0-1.74,0-5.7,0-11.39-.06-17.09,0-2.17,0-4.4-.51-6.53.38-.41,2.29-.1,4.6-.18,6.9a2.81,2.81,0,0,0,0,.29.93.93,0,0,0,.92.92c.77,0,1.54,0,2.31,0H504.7c.68,0,1.35,0,2,0,1.76,0,1.85.11,1.87,1.76,0,2.12,0,4.25,0,6.37,0,5.4-.06,10.81-.09,16.21C508.49,361.34,508.47,361.54,508.44,361.75Z" transform="translate(-39.14 -28.39)"/><path class="cls-1" d="M162.87,321.24a.55.55,0,0,1,.55-.52c.77,0,1.55,0,2.32,0H247.3a10,10,0,0,1,3.35.23c0,5.05.06,10.15.08,15.14a4.85,4.85,0,0,0,2.74.39h48.47c2.8,0,2.55,0,2.56-2.49,0-3.48,0-7,0-10.44V321a63.34,63.34,0,0,1,11.66-.12,3.19,3.19,0,0,1,.29,2q0,18.57,0,37.13c0,.48,0,1-.05,1.45a.88.88,0,0,1-.95.87h-.29c-3.1,0-6.19,0-9.29,0-1.12,0-1.34-.23-1.34-1.39,0-4.06,0-8.12,0-12.18,0-2.9.21-2.86-2.82-2.86H253.23c-2.77,0-2.54.23-2.55,2.58,0,3.67,0,7.35,0,11,0,.68,0,1.35-.05,2a.76.76,0,0,1-.7.77,8.93,8.93,0,0,1-1.16.05c-2.9,0-5.8,0-8.71,0-2.15,0-2.16,0-2.18-2.33s0-4.64,0-7c0-6.87,0-13.73,0-20.6a6.26,6.26,0,0,0-1-3.55c-1.18-1.88-2.27-3.82-3.41-5.73-.29-.49-.58-1-1.31-.93-.35-.45-.61-1-1.32-1s-1.54,0-2.32,0Z" transform="translate(-39.14 -28.39)"/><path class="cls-2" d="M508.44,361.75c0-.21.05-.42.08-.63,1.58.08,2.25-1.24,3.21-2.1.17-.16.18-.54.2-.82,0-.48,0-1,0-1.44V326.15c0-.39,0-.77,0-1.15a1.9,1.9,0,0,0-.77-1.76c-.54-.4-1.06-.83-1.59-1.25-.36-.29-.72-.14-1.09,0,0-.35,0-.71-.07-1.06.87,0,1.73-.14,2.6-.14h42.1c.68,0,1.35,0,2,0a.89.89,0,0,1,.91.91c0,.48,0,1,0,1.45v20.89c0,.48,0,1,0,1.45a.88.88,0,0,1-.89.92c-.68,0-1.35.05-2,.05-2.71,0-5.42,0-8.13,0a3.74,3.74,0,0,0-2,.23c-.21.62.31.84.65,1.12l9.88,8.08c.45.37.86.79,1.34,1.11a2.45,2.45,0,0,1,1.19,2.45,14,14,0,0,0,0,1.45c0,.75-.44,1-1.11,1-2.23,0-4.45,0-6.68,0a3.37,3.37,0,0,1-2.58-1.06c-2.09-2-4.2-4-6.32-6l-7.83-7.35a3.23,3.23,0,0,0-2.28-1.1c-2.13,0-4.26,0-6.39,0-.92,0-1.21.31-1.22,1.24,0,3.29,0,6.58,0,9.87,0,1.06,0,2.13,0,3.19,0,.69-.35,1.12-1,1.12C516.56,361.89,512.5,362.17,508.44,361.75Zm25.84-22.51h4.06c2.42,0,4.84,0,7.25,0,1.13,0,1.31-.22,1.33-1.39,0-1.93,0-3.87,0-5.8,0-1.06,0-2.12-.08-3.18a.75.75,0,0,0-.73-.75,6.4,6.4,0,0,0-.86-.08h-22a5.62,5.62,0,0,0-.58,0c-.89.08-1.22.36-1.22,1.26,0,2.8,0,5.61,0,8.41,0,1.34.23,1.52,1.53,1.53C526.74,339.26,530.51,339.24,534.28,339.24Z" transform="translate(-39.14 -28.39)"/><path class="cls-1" d="M162.87,321.24h65.72c.77,0,1.54,0,2.32,0s1,.52,1.32,1a56.27,56.27,0,0,1,.18,7.23c0,.69-.29,1.1-1,1.12s-1.55,0-2.32,0H207.9c-.72,0-1,.42-1,1.09s0,1.55,0,2.32v24.66c0,.68,0,1.35,0,2-.05,1.36-.22,1.58-1.46,1.59q-4.94,0-9.87,0c-1.09,0-1.3-.25-1.32-1.41,0-2,0-4.06,0-6.09V333.9c0-.68,0-1.35,0-2,0-1-.24-1.22-1.16-1.26-.77,0-1.55,0-2.32,0H165.15c-.58,0-1.16,0-1.74-.06a1.38,1.38,0,0,0-.45,0l-.08-.09c0-.67,0-1.35,0-2A22.36,22.36,0,0,1,162.87,321.24Z" transform="translate(-39.14 -28.39)"/><path class="cls-1" d="M134.44,339.74l.25-.54.36-.53v0a1.1,1.1,0,0,0,.6-1.07l0-.08a1.09,1.09,0,0,0,.57-1l.09-.18.41-.64a1.35,1.35,0,0,1,.63-1.12,1.09,1.09,0,0,0,.59-1l0-.1a1.07,1.07,0,0,0,.56-.94l0-.15.13-.07c.13-.21.27-.41.41-.62a1.44,1.44,0,0,1,.63-1.14,1.09,1.09,0,0,0,.59-1l.06-.13a1,1,0,0,0,.54-.92l0-.16.14-.08.4-.6a1.54,1.54,0,0,1,.65-1.16,1.08,1.08,0,0,0,.57-1l.07-.16.42-.66.25-.54.36-.53a1.66,1.66,0,0,1,.66-1.19c.15-.24.3-.47.44-.71a.35.35,0,0,1,.23-.44l12,0a.83.83,0,0,1,.54.8,1.08,1.08,0,0,0,.57,1,1.46,1.46,0,0,1,.65,1.14l.41.62.14.06,0,.14a1.11,1.11,0,0,0,.57.95l0,.09a1.08,1.08,0,0,0,.61,1.06v0l.39.59.14.08,0,.16a1.06,1.06,0,0,0,.55.92l.06.12a1.65,1.65,0,0,0,1.16,1.56l.08.09a1.06,1.06,0,0,0,.43,1.13l.07.14a1.1,1.1,0,0,0,.59,1,1.36,1.36,0,0,1,.64,1.12l.42.64.08.18a1.1,1.1,0,0,0,.58,1,1.45,1.45,0,0,1,.65,1.13c.14.21.27.42.41.62l.13.06,0,.14a1.11,1.11,0,0,0,.57,1l0,.09a1.08,1.08,0,0,0,.61,1.06v0l.39.59.14.08,0,.16a1.06,1.06,0,0,0,.55.92l.05.12a1.1,1.1,0,0,0,.6,1l0,0,.36.52c.08.18.17.36.25.53l.43.67.07.14a1.08,1.08,0,0,0,.59,1,1.37,1.37,0,0,1,.64,1.12l.42.64.08.18a1.1,1.1,0,0,0,.58,1,1.43,1.43,0,0,1,.65,1.14l.41.61.14.06,0,.14a1.11,1.11,0,0,0,.57.95l0,.09a1.07,1.07,0,0,0,.61,1.05v0l.39.59.14.08,0,.16a1.06,1.06,0,0,0,.55.92l.06.12a1.1,1.1,0,0,0,.6,1l0,0,.36.52.26.54c.14.22.29.44.43.67l.07.14a1.1,1.1,0,0,0,.59,1,1.38,1.38,0,0,1,.64,1.12l.42.64.08.17a1.09,1.09,0,0,0,.59,1l0,0c-.59.68-1.4.51-2.15.51H168.64a5.81,5.81,0,0,1-1.59-2.35q-7.28-13-14.52-26c-.47-.84-.95-1.67-1.43-2.5-1,.32-1.2,1.27-1.59,2-4.88,8.74-9.73,17.5-14.62,26.24-.51.9-.8,2-1.72,2.61h-3.76c-1.93,0-3.86,0-5.79,0a1.21,1.21,0,0,1-1.39-1.13v0a1.06,1.06,0,0,0,.62-1l0-.12a1.08,1.08,0,0,0,.55-.93l0-.15.14-.07.4-.6a1.48,1.48,0,0,1,.64-1.15,1.1,1.1,0,0,0,.58-1l.07-.15c.14-.22.28-.45.43-.67s.16-.36.25-.53l.36-.54a1.59,1.59,0,0,1,.66-1.18,1.07,1.07,0,0,0,.56-1l.08-.18a1.05,1.05,0,0,0,.51-.88l0-.18.16-.1.38-.56,0,0a1.09,1.09,0,0,0,.59-1l0-.11a1.09,1.09,0,0,0,.56-.95l0-.14.13-.06.41-.63a1.4,1.4,0,0,1,.64-1.13,1.11,1.11,0,0,0,.58-1l.06-.13a1.08,1.08,0,0,0,.54-.94l0-.15.14-.07.4-.6a1.51,1.51,0,0,1,.64-1.15,1.13,1.13,0,0,0,.58-1l.07-.14C134.15,340.19,134.3,340,134.44,339.74Z" transform="translate(-39.14 -28.39)"/><path class="cls-1" d="M85.09,356l.39-.59a.56.56,0,0,0,.25-.35l.09-.15.45-.59v0a1,1,0,0,0,.64-.93l0-.15.14-.05.42-.55,0-.05a.94.94,0,0,0,.6-.87v-.19l.17-.08.37-.48.06-.1.47-.62h0a1,1,0,0,0,.66-1l.09-.16.43-.57,0,0a1,1,0,0,0,.62-.91l0-.16.15-.06c.14-.18.27-.36.41-.53l0-.06a.76.76,0,0,0,.49-.65l.33-.55a.6.6,0,0,0,.31-.4l.08-.12.46-.6h0a1,1,0,0,0,.65-.95l.11-.18.42-.56,0,0a.94.94,0,0,0,.61-.9v-.17l.16-.07.39-.51a2.32,2.32,0,0,1,.92-1.31.57.57,0,0,0,.26-.36l.09-.15.45-.59v0a1,1,0,0,0,.63-.93l0-.15.14-.05.42-.55,0-.05.5-.67c.1-.17.2-.35.31-.52a.59.59,0,0,0,.34-.44l.06-.1.47-.61h0a1,1,0,0,0,.65-1l.09-.15.44-.57,0,0a1,1,0,0,0,.62-.92l0-.16.15-.06.41-.54,0-.06a.76.76,0,0,0,.49-.66l.33-.55a.61.61,0,0,0,.32-.41l.07-.12.46-.6h0a1,1,0,0,0,.64-.95l.11-.18.43-.56,0,0a.94.94,0,0,0,.61-.9V326l.16-.07.39-.5a.73.73,0,0,1,.52-.7,1,1,0,0,0,.67-1l.08-.14.45-.59v0A1,1,0,0,0,109,322l0-.15.14-.05.42-.52,0-.07h11.93c.06.67.16,1.33.16,2q0,18.74,0,37.48a3,3,0,0,1-2.42,1.15c-3-.07-6,0-9.07,0a4,4,0,0,1-.31-1.08q0-11.1.12-22.21c0-.76.14-1.53.22-2.29a1.36,1.36,0,0,0,.43-1.47c0-.15-.17-.37-.29-.39a.63.63,0,0,0-.46.22,2.11,2.11,0,0,0-.4,1.54.93.93,0,0,1-.39.84.59.59,0,0,0-.16.37,12.49,12.49,0,0,1-2.33,4.61q-7.14,9.67-14.34,19.31a3.46,3.46,0,0,1-.65.54c-2.17,0-4.35,0-6.52,0-.85,0-1.7,0-2.55-.06-.55,0-.75-.49-.85-1,0,0,.07-.1.06-.1l.47-.6h0a1,1,0,0,0,.65-.94L83,359l.42-.56,0,0a.93.93,0,0,0,.61-.89v-.18l.16-.08.39-.51.05-.08A5.15,5.15,0,0,1,85.09,356Z" transform="translate(-39.14 -28.39)"/><path class="cls-1" d="M49.62,335.15c0,.79,0,1.58,0,2.37a2,2,0,0,0,0,2.88,16.53,16.53,0,0,1,.18,1.71c0,6,0,12.07,0,18.11a2.58,2.58,0,0,1-.29,1.66l-9.88,0a1.81,1.81,0,0,1-.34-1.35q0-19,0-38.11a6.27,6.27,0,0,1,.2-1.12H50.21l.06.07.44.52.14,0,0,.14a.54.54,0,0,0,.25.32l.39.56.52.66,0,0c.15.19.3.38.46.56l.09.14c.12.15.24.3.37.44l.17.07V325a.93.93,0,0,0,.64.87v0l.48.59.07.1.41.49.15.05v.16a1,1,0,0,0,.66.92.76.76,0,0,1,.54.68l.43.53.11.17a1,1,0,0,0,.68.94l0,0a.76.76,0,0,0,.51.63l0,.05.44.55.11.16a.79.79,0,0,0,.35.41l.18.08,0,.2a.91.91,0,0,0,.63.86l0,0,.46.57.09.13.38.46.17.07v.18a1,1,0,0,0,.65.88h0l.48.59.06.09.41.5.15.05v.16a1,1,0,0,0,.68.91.73.73,0,0,1,.53.67l.43.54.11.17a1,1,0,0,0,.68.94l0,0a.76.76,0,0,0,.51.63l0,0,.45.55.11.16a.8.8,0,0,0,.35.42c.17,0,.24.11.2.28a.93.93,0,0,0,.63.86l0,0,.47.58.08.12.39.47.16.06v.17a1,1,0,0,0,.65.89.78.78,0,0,1,.55.69l.41.51.15,0,0,.15a1,1,0,0,0,.67.92.73.73,0,0,1,.53.67l.43.54.14,0,0,.15a.57.57,0,0,0,.22.3l.42.58.52.65,0,0,.45.56.1.14.36.43.17.08v.19a.92.92,0,0,0,.64.87l0,0,.47.58.07.11.4.48.16.06v.17a1,1,0,0,0,.66.9.78.78,0,0,1,.55.68l.42.52.14,0,0,.14a1,1,0,0,0,.68.93h0l.51.62,0,.05.44.54.14,0,0,.14a.57.57,0,0,0,.25.32l.4.55a.81.81,0,0,0,.52.66l0,0a1.22,1.22,0,0,1-1.4,1.13l-9.56,0a5.43,5.43,0,0,1-.84-.74q-7.2-9.26-14.38-18.54a18,18,0,0,1-3.44-6.29.66.66,0,0,0-.24-.48l-.31-.76a7.73,7.73,0,0,0-.16-1.09.55.55,0,0,0-.42-.27.5.5,0,0,0-.53.5A.92.92,0,0,0,49.62,335.15Z" transform="translate(-39.14 -28.39)"/><path class="cls-1" d="M246,394.63c0-3.38,0-6.77,0-10.15,0-1.32.17-1.49,1.53-1.5,3,0,6-.1,9,0,4.2.16,6.42,1.95,7.45,6a23.31,23.31,0,0,1,0,11.76c-.9,3.52-3.15,5.48-6.8,5.68-3.37.19-6.77.06-10.15.06-.73,0-1-.47-1-1.13,0-.1,0-.19,0-.29Zm5.45.31h0c0,1.64,0,3.29,0,4.93,0,3.95-.57,3.63,3.84,3.53.29,0,.57-.08.86-.11a3.68,3.68,0,0,0,3.31-2.81,22.63,22.63,0,0,0,.2-10.88,4.51,4.51,0,0,0-3.85-3.4q-1.74-.07-3.48,0a.86.86,0,0,0-.86.95Q251.43,391,251.42,394.94Z" transform="translate(-39.14 -28.39)"/><path class="cls-1" d="M197.17,406.35a8.26,8.26,0,0,1-1.15.15c-3.86,0-3.44.45-3.45-3.34,0-5.61,0-11.22,0-16.83,0-.68,0-1.35,0-2,0-1.12.21-1.27,1.42-1.32q.87,0,1.74,0c1.5,0,1.62.13,1.63,1.68,0,2.8,0,5.61,0,8.41a4.67,4.67,0,0,0,.21,2.26c.59.24.91-.22,1.25-.51,1.4-1.19,2.84-2.35,4.14-3.64a4.63,4.63,0,0,1,4.16-1.49c.28,0,.57.06.85.09.23.63-.26.88-.6,1.17-1.1.95-2.23,1.86-3.32,2.81a9,9,0,0,0-2.14,2.12c1.88,2.52,3.78,5.07,5.67,7.63.52.7,1,1.4,1.52,2.12a.51.51,0,0,1-.34.84l-.87,0c-3.37.07-3.36.07-5.44-2.69-1.17-1.54-2.34-3.08-3.54-4.59-.3-.39-.94-.22-1.21.19a3.52,3.52,0,0,0-.35,2A26.94,26.94,0,0,1,197.17,406.35Z" transform="translate(-39.14 -28.39)"/><path class="cls-1" d="M86.82,390.41a12,12,0,0,1,5.5-.73c2.81.3,4.18,1.68,4.23,4.51.07,3.67,0,7.34,0,11,0,1.08-.28,1.28-1.43,1.31-.39,0-.77,0-1.16,0a1,1,0,0,1-1.13-1c0-.67,0-1.35,0-2q0-3.91,0-7.83c0-.67,0-1.35-.09-2a1.6,1.6,0,0,0-1.22-1.46,5,5,0,0,0-2.58,0,2.41,2.41,0,0,0-2.06,2.68c0,2.9,0,5.8,0,8.69,0,.58,0,1.16,0,1.74,0,1-.25,1.22-1.16,1.28a8.42,8.42,0,0,1-.87,0c-2.85,0-2.87.38-2.86-2.79,0-6,0-12,0-18,0-.67,0-1.35.08-2a.82.82,0,0,1,.77-.73,5,5,0,0,1,.87,0c3.55,0,3.16-.21,3.18,3.06C86.82,387.37,86.82,388.72,86.82,390.41Z" transform="translate(-39.14 -28.39)"/><path class="cls-1" d="M45.51,406.5v-20c-1.63-.61-3.19-.28-4.71-.35s-1.67-.16-1.66-1.61a6.11,6.11,0,0,1,.06-.86A.75.75,0,0,1,40,383c.48,0,1,0,1.45,0H54.74c.58,0,1.16,0,1.73.06a.8.8,0,0,1,.76.73,8.66,8.66,0,0,1,0,1.44.86.86,0,0,1-.91.9c-1.45,0-2.89,0-4.34.05-.68,0-1.07.33-1.07,1s0,1.35,0,2v14.17c0,.67,0,1.35,0,2s-.31,1.09-1,1.08C48.51,406.5,47.16,406.5,45.51,406.5Z" transform="translate(-39.14 -28.39)"/><path class="cls-1" d="M152.66,406.5a118.71,118.71,0,0,1-.1-16.71c1.55.09,3.17-.67,4.66.45.46.35.91.09,1.33-.09a8.57,8.57,0,0,1,4.56-.45,3.94,3.94,0,0,1,3.77,4c.09,3.86,0,7.73,0,11.6,0,.92-.29,1.13-1.26,1.18a11.22,11.22,0,0,1-1.16,0c-1,0-1.25-.28-1.29-1.16s0-1.55,0-2.32c0-2.71,0-5.41,0-8.12,0-1.86-.86-2.69-2.59-2.76s-3.47,1.27-3.4,2.85c0,1.16,0,2.32,0,3.48q0,3.48,0,7a1,1,0,0,1-1.06,1.07Z" transform="translate(-39.14 -28.39)"/><path class="cls-1" d="M519.38,406.39c-.36,0-.74.11-1.12.12-2.22,0-2.23,0-2.25-2.22,0-3.19,0-6.38,0-9.57,0-1.52-.45-2.15-2.22-2.51a3,3,0,0,0-3.72,3c-.06,2.61,0,5.22,0,7.83,0,.77,0,1.55,0,2.32s-.31,1.11-1,1.13c-.87,0-1.74,0-2.61,0-1.1,0-1.31-.23-1.31-1.43q0-7.11,0-14.21c0-.93.25-1.21,1.25-1.14,1.3.08,2.71-.5,3.88.57.34.31.74.06,1.06-.09a8.45,8.45,0,0,1,4.55-.51,3.93,3.93,0,0,1,3.83,3.95c0,.48,0,1,0,1.45,0,3,0,6,0,9A4,4,0,0,1,519.38,406.39Z" transform="translate(-39.14 -28.39)"/><path class="cls-1" d="M403.69,402.84c-.17.88-.27,1.35-.35,1.82a1.6,1.6,0,0,1-1.26,1.4,14.22,14.22,0,0,1-8.82-.18,5.11,5.11,0,0,1-3.27-3.45,13.31,13.31,0,0,1,.24-8.81,6,6,0,0,1,4.72-3.85,12.17,12.17,0,0,1,4.62,0,5.33,5.33,0,0,1,4.36,3.78,10.07,10.07,0,0,1,.55,2.83c.09,2.49,0,2.57-2.49,2.58-1.93,0-3.87,0-5.8,0a2.61,2.61,0,0,0-1.74.3,5.8,5.8,0,0,0,1,3.48,2.75,2.75,0,0,0,2.37,1.44,7.59,7.59,0,0,0,3.14-.37C401.73,403.56,402.53,403.27,403.69,402.84Zm-9.27-6.23h5.89c.59,0,.83-.37.8-.92a5.29,5.29,0,0,0-.13-1.13,3.24,3.24,0,0,0-3.26-2.67c-1.76-.05-2.69.69-3.27,2.56A2.8,2.8,0,0,0,394.42,396.61Z" transform="translate(-39.14 -28.39)"/><path class="cls-1" d="M470.27,399a5.83,5.83,0,0,0,1.08,3.94,2.82,2.82,0,0,0,2.44,1.31,10.62,10.62,0,0,0,5.28-1.32c.33,2.24,0,3-1.94,3.36a14.89,14.89,0,0,1-7.44-.19,5.68,5.68,0,0,1-4.18-4.7,15.92,15.92,0,0,1,.06-6.34,6.38,6.38,0,0,1,6.29-5.38,16.91,16.91,0,0,1,3.18.09,5.44,5.44,0,0,1,4.87,4.31,13.47,13.47,0,0,1,.35,2.29c.22,2.42,0,2.62-2.42,2.63Zm6.58-2.53a3.61,3.61,0,0,0-.43-2.87,3.08,3.08,0,0,0-3.06-1.71,2.82,2.82,0,0,0-2.88,1.94,9.77,9.77,0,0,0-.39,1.95c0,.4.15.82.58.82A33.5,33.5,0,0,0,476.85,396.46Z" transform="translate(-39.14 -28.39)"/><path class="cls-1" d="M547.43,392.09c-.85,0-1.42-.07-2-.12-.89-.08-1.09-.34-1.08-1.31,0-.54.17-1,.79-1s1.32,0,2.1,0a37,37,0,0,0,.19-5.31c.05-1.14.26-1.4,1.35-1.41,4,0,3.61-.43,3.63,3.49,0,.29,0,.58,0,.87a5.5,5.5,0,0,0,.23,2c.36.7,1.22.32,1.86.38a.93.93,0,0,1,1,1.11c0,.66-.22,1.12-1,1.17l-1.16,0c-.57,0-.92.27-.92.86,0,2.9,0,5.79,0,8.69a2.06,2.06,0,0,0,1.77,2.26c1.26.3,1.38.64,1.27,1.8a.87.87,0,0,1-.9.91,14.43,14.43,0,0,1-1.74,0c-3.78-.3-5.35-1.95-5.4-5.74C547.41,398,547.43,395.18,547.43,392.09Z" transform="translate(-39.14 -28.39)"/><path class="cls-1" d="M357.3,392.22c-.6-.41-1.29-.22-1.94-.25-.81,0-.9-.56-.93-1.17,0-.78.18-1,.95-1.1.29,0,.58,0,.87,0s.57,0,.83-.07c.6-.43.37-1.07.47-1.61.53-2.84,1.88-4.2,4.71-4.71.47-.09.95-.17,1.43-.22,1.56-.18,2.28.78,1.74,2.27-.16.44-.53.52-.87.67-2.12.92-2.12.92-2.11,3.42a3.91,3.91,0,0,0,2,.26c.66,0,1.09.27,1.07,1s-.22,1.13-1.2,1.24c-.56.07-1.16-.09-1.7.25-.56.54-.31,1.25-.32,1.88,0,3.57,0,7.14,0,10.7,0,1.62-.09,1.7-1.56,1.7-3.42,0-3.18.35-3.18-3,0-3.09,0-6.17,0-9.26A4,4,0,0,0,357.3,392.22Z" transform="translate(-39.14 -28.39)"/><path class="cls-1" d="M327.21,406.3a5.79,5.79,0,0,1-2.55.2c-1.9,0-1.93,0-1.94-2,0-3.38,0-6.76,0-10.13a4.72,4.72,0,0,0-.26-2.33c-.57,0-1.14-.06-1.71-.11-.92-.08-1.11-.32-1.1-1.28,0-.53.14-1,.77-1s1.32,0,2.07,0c.19-1,.31-1.83.52-2.64a4.76,4.76,0,0,1,3.73-3.63,19.51,19.51,0,0,1,2.86-.41c.69-.07,1,.29,1.07,1,.11,1.34.06,1.56-1.37,2.05a2.46,2.46,0,0,0-1.72,2.09c-.2,1,.11,1.38,1.14,1.48.38,0,.77,0,1.16.05.6.05.79.43.79,1s-.07,1-.61,1.18a2.5,2.5,0,0,1-.29.05c-.65.12-1.41-.17-1.94.33s-.3,1.46-.31,2.2c0,3.18,0,6.37,0,9.56A4.12,4.12,0,0,1,327.21,406.3Z" transform="translate(-39.14 -28.39)"/><path class="cls-1" d="M429.38,397.88c0-2.31,0-4.62,0-6.93,0-1.05.18-1.22,1.12-1.24s1.93,0,2.89,0a.76.76,0,0,1,.77.69c.11.52.48.53.84.32a7.55,7.55,0,0,1,4.71-1.05,1.87,1.87,0,0,1,1.08,2,.61.61,0,0,1-.44.31c-.67.06-1.35,0-2,.1a4.59,4.59,0,0,0-4.16,4.72c-.05,2.5,0,5,0,7.51,0,2.15,0,2.15-2.3,2.15-.39,0-.77,0-1.16,0-1.14-.05-1.3-.18-1.31-1.39C429.36,402.7,429.38,400.29,429.38,397.88Z" transform="translate(-39.14 -28.39)"/><path class="cls-1" d="M126.87,398.39c0,2.22,0,4.43,0,6.65,0,1.32-.15,1.46-1.56,1.45-3.53,0-3.24.53-3.25-3.22q0-5.92,0-11.86c0-1.63.08-1.72,1.54-1.71,3.66,0,3.24-.49,3.26,3.19,0,1.84,0,3.67,0,5.5Z" transform="translate(-39.14 -28.39)"/><path class="cls-1" d="M294.78,397.91c0,2.5,0,5,0,7.49,0,.66-.3,1.09-1,1.09h-.87c-3,0-2.83.3-2.82-2.78,0-4.23,0-8.46,0-12.68,0-1.23.11-1.29,1.32-1.34h.29c3.49,0,3.08-.41,3.11,3,0,1.73,0,3.46,0,5.19Z" transform="translate(-39.14 -28.39)"/><path class="cls-1" d="M295.21,385.83a2.79,2.79,0,0,1-5.58-.08,2.92,2.92,0,0,1,3-2.81A2.84,2.84,0,0,1,295.21,385.83Z" transform="translate(-39.14 -28.39)"/><path class="cls-1" d="M127.16,385.58a2.71,2.71,0,0,1-2.59,2.92,2.75,2.75,0,0,1-2.87-2.65,2.79,2.79,0,0,1,2.61-2.92A2.68,2.68,0,0,1,127.16,385.58Z" transform="translate(-39.14 -28.39)"/><path class="cls-1" d="M110.16,361.87c3,0,6-.06,9.07,0a3,3,0,0,0,2.42-1.15h.63a1.2,1.2,0,0,0,1.39,1.13c1.93,0,3.86,0,5.79,0h3.76a1,1,0,0,1-1,.44H111.12C110.72,362.31,110.36,362.28,110.16,361.87Z" transform="translate(-39.14 -28.39)"/><path class="cls-1" d="M69.52,361.88c3.19,0,6.37,0,9.56,0a1.22,1.22,0,0,0,1.4-1.13l1.18.09c.1.49.3.94.85,1,.85.07,1.7.05,2.55.06h6.52a.94.94,0,0,1-1,.46H70.49A1.06,1.06,0,0,1,69.52,361.88Z" transform="translate(-39.14 -28.39)"/><path class="cls-1" d="M168.68,361.86h10.07c.75,0,1.56.17,2.15-.51a.49.49,0,0,1,.2.7.68.68,0,0,1-.49.24q-5.78,0-11.55-.05C168.94,362.23,168.81,362,168.68,361.86Z" transform="translate(-39.14 -28.39)"/><path class="cls-1" d="M121.5,321.25H109.57c.14-.25.29-.5.62-.5h10.72C121.26,320.74,121.4,321,121.5,321.25Z" transform="translate(-39.14 -28.39)"/><path class="cls-1" d="M157.12,321.23l-12,0c.21-.17.41-.48.62-.48,3.59,0,7.19,0,10.79,0C156.84,320.74,157,321,157.12,321.23Z" transform="translate(-39.14 -28.39)"/><path class="cls-1" d="M50.21,321.25H39.58c.09-.28.25-.52.57-.52l9.44,0C49.92,320.76,50.07,321,50.21,321.25Z" transform="translate(-39.14 -28.39)"/><path class="cls-1" d="M39.72,361.85l9.88,0a.76.76,0,0,1-.66.43H40.36A.65.65,0,0,1,39.72,361.85Z" transform="translate(-39.14 -28.39)"/><path class="cls-1" d="M49.69,340.4a2,2,0,0,1,0-2.88A5.73,5.73,0,0,1,49.69,340.4Z" transform="translate(-39.14 -28.39)"/><path class="cls-1" d="M109.46,336.18a2.16,2.16,0,0,1,.4-1.54.67.67,0,0,1,.46-.22c.12,0,.26.24.29.39a1.35,1.35,0,0,1-.43,1.47A.59.59,0,0,0,109.46,336.18Z" transform="translate(-39.14 -28.39)"/><path class="cls-1" d="M49.62,335.15a.93.93,0,0,1-.43-.95.5.5,0,0,1,.53-.5.56.56,0,0,1,.42.27,6.66,6.66,0,0,1,.16,1.09Z" transform="translate(-39.14 -28.39)"/><path class="cls-1" d="M162.89,330.47a1.63,1.63,0,0,1-1.16-1.56c.53.23.81-.15,1.11-.46C162.86,329.13,162.87,329.8,162.89,330.47Z" transform="translate(-39.14 -28.39)"/><path class="cls-1" d="M63.1,338a1,1,0,0,1-.68-.91A1.11,1.11,0,0,1,63.1,338Z" transform="translate(-39.14 -28.39)"/><path class="cls-1" d="M142.66,325.48a1.09,1.09,0,0,1-.57,1A1.06,1.06,0,0,1,142.66,325.48Z" transform="translate(-39.14 -28.39)"/><path class="cls-1" d="M100.84,333.6a1,1,0,0,1-.65,1A1.08,1.08,0,0,1,100.84,333.6Z" transform="translate(-39.14 -28.39)"/><path class="cls-1" d="M106.08,326.14a1,1,0,0,1-.61.9A1,1,0,0,1,106.08,326.14Z" transform="translate(-39.14 -28.39)"/><path class="cls-1" d="M160.6,327A1.08,1.08,0,0,1,160,326,1.17,1.17,0,0,1,160.6,327Z" transform="translate(-39.14 -28.39)"/><path class="cls-1" d="M138,333.54a1.1,1.1,0,0,1-.59,1A1.14,1.14,0,0,1,138,333.54Z" transform="translate(-39.14 -28.39)"/><path class="cls-1" d="M55.53,328.18a1,1,0,0,1-.66-.92A1.07,1.07,0,0,1,55.53,328.18Z" transform="translate(-39.14 -28.39)"/><path class="cls-1" d="M133.94,340.55a1.09,1.09,0,0,1-.58,1A1.14,1.14,0,0,1,133.94,340.55Z" transform="translate(-39.14 -28.39)"/><path class="cls-1" d="M104.91,327.82a1,1,0,0,1-.64.95A1,1,0,0,1,104.91,327.82Z" transform="translate(-39.14 -28.39)"/><path class="cls-1" d="M169.22,341.57a1.06,1.06,0,0,1-.55-.92C169,340.88,169.28,341.12,169.22,341.57Z" transform="translate(-39.14 -28.39)"/><path class="cls-1" d="M161.67,328.8a1.06,1.06,0,0,1-.55-.92C161.44,328.11,161.73,328.35,161.67,328.8Z" transform="translate(-39.14 -28.39)"/><path class="cls-1" d="M67.11,343.28a.91.91,0,0,1-.63-.86C66.82,342.61,67.12,342.84,67.11,343.28Z" transform="translate(-39.14 -28.39)"/><path class="cls-1" d="M93.88,343.49a1,1,0,0,1-.65.95A1.09,1.09,0,0,1,93.88,343.49Z" transform="translate(-39.14 -28.39)"/><path class="cls-1" d="M132.21,343.53a1.08,1.08,0,0,1-.54.94A1,1,0,0,1,132.21,343.53Z" transform="translate(-39.14 -28.39)"/><path class="cls-1" d="M68.88,345.6a1,1,0,0,1-.65-.89A1,1,0,0,1,68.88,345.6Z" transform="translate(-39.14 -28.39)"/><path class="cls-1" d="M131.62,344.6a1.11,1.11,0,0,1-.58,1A1.11,1.11,0,0,1,131.62,344.6Z" transform="translate(-39.14 -28.39)"/><path class="cls-1" d="M171.6,345.62a1.1,1.1,0,0,1-.59-1A1.1,1.1,0,0,1,171.6,345.62Z" transform="translate(-39.14 -28.39)"/><path class="cls-1" d="M70.64,347.91A1,1,0,0,1,70,347,1.1,1.1,0,0,1,70.64,347.91Z" transform="translate(-39.14 -28.39)"/><path class="cls-1" d="M91,347.6a1,1,0,0,1-.62.91A1,1,0,0,1,91,347.6Z" transform="translate(-39.14 -28.39)"/><path class="cls-1" d="M129.89,347.58a1.05,1.05,0,0,1-.56.95A1,1,0,0,1,129.89,347.58Z" transform="translate(-39.14 -28.39)"/><path class="cls-1" d="M129.29,348.64a1.11,1.11,0,0,1-.59,1A1.15,1.15,0,0,1,129.29,348.64Z" transform="translate(-39.14 -28.39)"/><path class="cls-1" d="M89.81,349.27a1,1,0,0,1-.66,1A1.12,1.12,0,0,1,89.81,349.27Z" transform="translate(-39.14 -28.39)"/><path class="cls-1" d="M128.16,350.56a1.06,1.06,0,0,1-.51.88C127.58,351,127.85,350.77,128.16,350.56Z" transform="translate(-39.14 -28.39)"/><path class="cls-1" d="M175.05,351.43a1.11,1.11,0,0,1-.57-.95A1.07,1.07,0,0,1,175.05,351.43Z" transform="translate(-39.14 -28.39)"/><path class="cls-1" d="M88.08,351.71a.92.92,0,0,1-.6.87C87.45,352.13,87.74,351.9,88.08,351.71Z" transform="translate(-39.14 -28.39)"/><path class="cls-1" d="M127.56,351.62a1.09,1.09,0,0,1-.56,1A1,1,0,0,1,127.56,351.62Z" transform="translate(-39.14 -28.39)"/><path class="cls-1" d="M175.7,352.57a1.07,1.07,0,0,1-.61-1.05A1.18,1.18,0,0,1,175.7,352.57Z" transform="translate(-39.14 -28.39)"/><path class="cls-1" d="M74.66,353.15a.93.93,0,0,1-.64-.87C74.38,352.47,74.67,352.7,74.66,353.15Z" transform="translate(-39.14 -28.39)"/><path class="cls-1" d="M86.91,353.38a1,1,0,0,1-.64.93A1.08,1.08,0,0,1,86.91,353.38Z" transform="translate(-39.14 -28.39)"/><path class="cls-1" d="M176.77,354.34a1.06,1.06,0,0,1-.55-.92A1,1,0,0,1,176.77,354.34Z" transform="translate(-39.14 -28.39)"/><path class="cls-1" d="M95.05,341.81a1,1,0,0,1-.61.9C94.41,342.26,94.7,342,95.05,341.81Z" transform="translate(-39.14 -28.39)"/><path class="cls-1" d="M76.43,355.46a1,1,0,0,1-.66-.9A1.08,1.08,0,0,1,76.43,355.46Z" transform="translate(-39.14 -28.39)"/><path class="cls-1" d="M177.42,355.48a1.1,1.1,0,0,1-.6-1A1.12,1.12,0,0,1,177.42,355.48Z" transform="translate(-39.14 -28.39)"/><path class="cls-1" d="M125.23,355.65a1.13,1.13,0,0,1-.58,1A1.15,1.15,0,0,1,125.23,355.65Z" transform="translate(-39.14 -28.39)"/><path class="cls-1" d="M78.2,357.77a1,1,0,0,1-.68-.93A1.11,1.11,0,0,1,78.2,357.77Z" transform="translate(-39.14 -28.39)"/><path class="cls-1" d="M84,357.49a1,1,0,0,1-.61.89A1,1,0,0,1,84,357.49Z" transform="translate(-39.14 -28.39)"/><path class="cls-1" d="M179.15,358.39a1.08,1.08,0,0,1-.59-1A1.11,1.11,0,0,1,179.15,358.39Z" transform="translate(-39.14 -28.39)"/><path class="cls-1" d="M98,337.71a1,1,0,0,1-.63.93A1,1,0,0,1,98,337.71Z" transform="translate(-39.14 -28.39)"/><path class="cls-1" d="M82.84,359.16a1,1,0,0,1-.65.94A1.11,1.11,0,0,1,82.84,359.16Z" transform="translate(-39.14 -28.39)"/><path class="cls-1" d="M122.9,359.68a1.05,1.05,0,0,1-.62,1A1.17,1.17,0,0,1,122.9,359.68Z" transform="translate(-39.14 -28.39)"/><path class="cls-1" d="M180.88,361.29a1.11,1.11,0,0,1-.59-1A1.11,1.11,0,0,1,180.88,361.29Z" transform="translate(-39.14 -28.39)"/><path class="cls-1" d="M163.4,331.7a1.09,1.09,0,0,1-.43-1.13,1.38,1.38,0,0,1,.45,0C163.41,330.92,163.4,331.31,163.4,331.7Z" transform="translate(-39.14 -28.39)"/><path class="cls-1" d="M135.67,337.58a1.11,1.11,0,0,1-.6,1.07A1.19,1.19,0,0,1,135.67,337.58Z" transform="translate(-39.14 -28.39)"/><path class="cls-1" d="M173.33,348.52a1.1,1.1,0,0,1-.58-1A1.12,1.12,0,0,1,173.33,348.52Z" transform="translate(-39.14 -28.39)"/><path class="cls-1" d="M109,322a1,1,0,0,1-.63.94A1.05,1.05,0,0,1,109,322Z" transform="translate(-39.14 -28.39)"/><path class="cls-1" d="M167.5,338.66a1.11,1.11,0,0,1-.57-1A1.07,1.07,0,0,1,167.5,338.66Z" transform="translate(-39.14 -28.39)"/><path class="cls-1" d="M158.23,323a1.06,1.06,0,0,1-.57-1A1,1,0,0,1,158.23,323Z" transform="translate(-39.14 -28.39)"/><path class="cls-1" d="M140.33,329.51a1.09,1.09,0,0,1-.59,1A1.11,1.11,0,0,1,140.33,329.51Z" transform="translate(-39.14 -28.39)"/><path class="cls-1" d="M102,331.92a1,1,0,0,1-.62.92A1,1,0,0,1,102,331.92Z" transform="translate(-39.14 -28.39)"/><path class="cls-1" d="M64.84,340.36a1,1,0,0,1-.68-.94A1.08,1.08,0,0,1,64.84,340.36Z" transform="translate(-39.14 -28.39)"/><path class="cls-1" d="M169.88,342.71a1.09,1.09,0,0,1-.6-1A1.18,1.18,0,0,1,169.88,342.71Z" transform="translate(-39.14 -28.39)"/><path class="cls-1" d="M165.78,335.76a1.1,1.1,0,0,1-.58-1A1.06,1.06,0,0,1,165.78,335.76Z" transform="translate(-39.14 -28.39)"/><path class="cls-1" d="M164.05,332.85a1.11,1.11,0,0,1-.59-1A1.13,1.13,0,0,1,164.05,332.85Z" transform="translate(-39.14 -28.39)"/><path class="cls-1" d="M57.3,330.49a1,1,0,0,1-.68-.94A1.16,1.16,0,0,1,57.3,330.49Z" transform="translate(-39.14 -28.39)"/><path class="cls-1" d="M107.8,323.71a1,1,0,0,1-.67,1A1.16,1.16,0,0,1,107.8,323.71Z" transform="translate(-39.14 -28.39)"/><path class="cls-1" d="M168.15,339.81a1.1,1.1,0,0,1-.61-1.06A1.17,1.17,0,0,1,168.15,339.81Z" transform="translate(-39.14 -28.39)"/><path class="cls-1" d="M59.55,333.42a.93.93,0,0,1-.63-.86A.91.91,0,0,1,59.55,333.42Z" transform="translate(-39.14 -28.39)"/><path class="cls-1" d="M61.32,335.73a1,1,0,0,1-.65-.88A1,1,0,0,1,61.32,335.73Z" transform="translate(-39.14 -28.39)"/><path class="cls-1" d="M138.6,332.5a1,1,0,0,1-.56.94A1.05,1.05,0,0,1,138.6,332.5Z" transform="translate(-39.14 -28.39)"/><path class="cls-1" d="M136.27,336.53a1.09,1.09,0,0,1-.57,1A1.09,1.09,0,0,1,136.27,336.53Z" transform="translate(-39.14 -28.39)"/><path class="cls-1" d="M53.76,325.87a.93.93,0,0,1-.64-.87C53.47,325.19,53.77,325.42,53.76,325.87Z" transform="translate(-39.14 -28.39)"/><path class="cls-1" d="M160,325.89a1.11,1.11,0,0,1-.57-.95A1.07,1.07,0,0,1,160,325.89Z" transform="translate(-39.14 -28.39)"/><path class="cls-1" d="M140.93,328.45a1,1,0,0,1-.54.92C140.33,328.93,140.61,328.68,140.93,328.45Z" transform="translate(-39.14 -28.39)"/><path class="cls-1" d="M123.51,358.63a1.06,1.06,0,0,1-.55.93C122.9,359.11,123.19,358.86,123.51,358.63Z" transform="translate(-39.14 -28.39)"/><path class="cls-1" d="M67.59,343.89l-.47-.58A.51.51,0,0,1,67.59,343.89Z" transform="translate(-39.14 -28.39)"/><path class="cls-1" d="M144.87,321.69c-.15.24-.3.47-.44.71A.65.65,0,0,1,144.87,321.69Z" transform="translate(-39.14 -28.39)"/><path class="cls-1" d="M52,323.55l-.52-.66A.65.65,0,0,1,52,323.55Z" transform="translate(-39.14 -28.39)"/><path class="cls-1" d="M68.06,344.47l-.39-.47A.42.42,0,0,1,68.06,344.47Z" transform="translate(-39.14 -28.39)"/><path class="cls-1" d="M170.94,344.47l-.43-.67A.61.61,0,0,1,170.94,344.47Z" transform="translate(-39.14 -28.39)"/><path class="cls-1" d="M108.33,323l-.45.59A.52.52,0,0,1,108.33,323Z" transform="translate(-39.14 -28.39)"/><path class="cls-1" d="M93.22,344.45l-.46.6A.53.53,0,0,1,93.22,344.45Z" transform="translate(-39.14 -28.39)"/><path class="cls-1" d="M52.48,324.16c-.15-.19-.3-.38-.46-.56A.5.5,0,0,1,52.48,324.16Z" transform="translate(-39.14 -28.39)"/><path class="cls-1" d="M143.76,323.58l-.36.53A.44.44,0,0,1,143.76,323.58Z" transform="translate(-39.14 -28.39)"/><path class="cls-1" d="M92.69,345.17a.6.6,0,0,1-.31.4A.31.31,0,0,1,92.69,345.17Z" transform="translate(-39.14 -28.39)"/><path class="cls-1" d="M69.84,346.8l-.41-.51A.46.46,0,0,1,69.84,346.8Z" transform="translate(-39.14 -28.39)"/><path class="cls-1" d="M92.05,346.13a.76.76,0,0,1-.49.65A.62.62,0,0,1,92.05,346.13Z" transform="translate(-39.14 -28.39)"/><path class="cls-1" d="M52.94,324.74c-.12-.15-.24-.3-.37-.44A.38.38,0,0,1,52.94,324.74Z" transform="translate(-39.14 -28.39)"/><path class="cls-1" d="M91.52,346.84c-.14.18-.27.36-.41.53A.46.46,0,0,1,91.52,346.84Z" transform="translate(-39.14 -28.39)"/><path class="cls-1" d="M130.39,346.75l-.41.63A.54.54,0,0,1,130.39,346.75Z" transform="translate(-39.14 -28.39)"/><path class="cls-1" d="M172.66,347.38l-.42-.64A.53.53,0,0,1,172.66,347.38Z" transform="translate(-39.14 -28.39)"/><path class="cls-1" d="M159.29,324.74l-.41-.62A.54.54,0,0,1,159.29,324.74Z" transform="translate(-39.14 -28.39)"/><path class="cls-1" d="M143.15,324.65l-.42.66A.6.6,0,0,1,143.15,324.65Z" transform="translate(-39.14 -28.39)"/><path class="cls-1" d="M66.28,342.14a.85.85,0,0,1-.35-.42A.37.37,0,0,1,66.28,342.14Z" transform="translate(-39.14 -28.39)"/><path class="cls-1" d="M71.61,349.12l-.43-.54A.49.49,0,0,1,71.61,349.12Z" transform="translate(-39.14 -28.39)"/><path class="cls-1" d="M90.33,348.54l-.43.57A.51.51,0,0,1,90.33,348.54Z" transform="translate(-39.14 -28.39)"/><path class="cls-1" d="M106.62,325.4l-.39.5A.43.43,0,0,1,106.62,325.4Z" transform="translate(-39.14 -28.39)"/><path class="cls-1" d="M72,349.61a.59.59,0,0,1-.22-.3l.21.08Z" transform="translate(-39.14 -28.39)"/><path class="cls-1" d="M54.25,326.47l-.48-.59A.54.54,0,0,1,54.25,326.47Z" transform="translate(-39.14 -28.39)"/><path class="cls-1" d="M128.67,349.72l-.38.56A.49.49,0,0,1,128.67,349.72Z" transform="translate(-39.14 -28.39)"/><path class="cls-1" d="M174.38,350.28l-.41-.61A.52.52,0,0,1,174.38,350.28Z" transform="translate(-39.14 -28.39)"/><path class="cls-1" d="M72.9,350.83l-.52-.65A.66.66,0,0,1,72.9,350.83Z" transform="translate(-39.14 -28.39)"/><path class="cls-1" d="M89.15,350.24l-.47.62A.55.55,0,0,1,89.15,350.24Z" transform="translate(-39.14 -28.39)"/><path class="cls-1" d="M54.73,327.06l-.41-.49A.45.45,0,0,1,54.73,327.06Z" transform="translate(-39.14 -28.39)"/><path class="cls-1" d="M105.44,327.08l-.43.56A.5.5,0,0,1,105.44,327.08Z" transform="translate(-39.14 -28.39)"/><path class="cls-1" d="M73.38,351.44l-.45-.56A.5.5,0,0,1,73.38,351.44Z" transform="translate(-39.14 -28.39)"/><path class="cls-1" d="M88.62,351l-.37.48A.42.42,0,0,1,88.62,351Z" transform="translate(-39.14 -28.39)"/><path class="cls-1" d="M73.84,352l-.36-.43A.37.37,0,0,1,73.84,352Z" transform="translate(-39.14 -28.39)"/><path class="cls-1" d="M161,327.65l-.39-.59A.5.5,0,0,1,161,327.65Z" transform="translate(-39.14 -28.39)"/><path class="cls-1" d="M141.43,327.62l-.4.6A.53.53,0,0,1,141.43,327.62Z" transform="translate(-39.14 -28.39)"/><path class="cls-1" d="M56.5,329.39l-.43-.53A.46.46,0,0,1,56.5,329.39Z" transform="translate(-39.14 -28.39)"/><path class="cls-1" d="M104.26,328.78l-.46.6A.52.52,0,0,1,104.26,328.78Z" transform="translate(-39.14 -28.39)"/><path class="cls-1" d="M87.44,352.63l-.42.55A.49.49,0,0,1,87.44,352.63Z" transform="translate(-39.14 -28.39)"/><path class="cls-1" d="M176.1,353.18l-.39-.59A.5.5,0,0,1,176.1,353.18Z" transform="translate(-39.14 -28.39)"/><path class="cls-1" d="M75.15,353.75l-.47-.58A.53.53,0,0,1,75.15,353.75Z" transform="translate(-39.14 -28.39)"/><path class="cls-1" d="M103.73,329.5a.58.58,0,0,1-.32.41A.32.32,0,0,1,103.73,329.5Z" transform="translate(-39.14 -28.39)"/><path class="cls-1" d="M57.79,331.1a.76.76,0,0,1-.51-.63A.62.62,0,0,1,57.79,331.1Z" transform="translate(-39.14 -28.39)"/><path class="cls-1" d="M75.62,354.34l-.4-.48A.42.42,0,0,1,75.62,354.34Z" transform="translate(-39.14 -28.39)"/><path class="cls-1" d="M103.08,330.45a.78.78,0,0,1-.49.66A.63.63,0,0,1,103.08,330.45Z" transform="translate(-39.14 -28.39)"/><path class="cls-1" d="M58.27,331.7l-.44-.55A.5.5,0,0,1,58.27,331.7Z" transform="translate(-39.14 -28.39)"/><path class="cls-1" d="M86.26,354.33l-.45.59A.52.52,0,0,1,86.26,354.33Z" transform="translate(-39.14 -28.39)"/><path class="cls-1" d="M102.55,331.17l-.41.54A.46.46,0,0,1,102.55,331.17Z" transform="translate(-39.14 -28.39)"/><path class="cls-1" d="M85.73,355.07a.56.56,0,0,1-.25.35C85.42,355.21,85.51,355.09,85.73,355.07Z" transform="translate(-39.14 -28.39)"/><path class="cls-1" d="M125.73,354.83c-.14.22-.28.45-.43.67A.62.62,0,0,1,125.73,354.83Z" transform="translate(-39.14 -28.39)"/><path class="cls-1" d="M58.73,332.28a.78.78,0,0,1-.35-.41A.35.35,0,0,1,58.73,332.28Z" transform="translate(-39.14 -28.39)"/><path class="cls-1" d="M177.8,356l-.36-.52C177.7,355.6,177.85,355.75,177.8,356Z" transform="translate(-39.14 -28.39)"/><path class="cls-1" d="M77.4,356.66l-.42-.52A.47.47,0,0,1,77.4,356.66Z" transform="translate(-39.14 -28.39)"/><path class="cls-1" d="M85.09,356l-.48.64A.61.61,0,0,1,85.09,356Z" transform="translate(-39.14 -28.39)"/><path class="cls-1" d="M139.1,331.66l-.41.62A.54.54,0,0,1,139.1,331.66Z" transform="translate(-39.14 -28.39)"/><path class="cls-1" d="M84.56,356.73l-.39.51A.44.44,0,0,1,84.56,356.73Z" transform="translate(-39.14 -28.39)"/><path class="cls-1" d="M178.49,357.24c-.14-.22-.29-.44-.43-.67A.61.61,0,0,1,178.49,357.24Z" transform="translate(-39.14 -28.39)"/><path class="cls-1" d="M101.37,332.87l-.44.57A.51.51,0,0,1,101.37,332.87Z" transform="translate(-39.14 -28.39)"/><path class="cls-1" d="M60,334l-.46-.57A.52.52,0,0,1,60,334Z" transform="translate(-39.14 -28.39)"/><path class="cls-1" d="M78.69,358.38l-.51-.62A.61.61,0,0,1,78.69,358.38Z" transform="translate(-39.14 -28.39)"/><path class="cls-1" d="M124,357.8l-.4.6A.51.51,0,0,1,124,357.8Z" transform="translate(-39.14 -28.39)"/><path class="cls-1" d="M79.16,359l-.44-.54A.47.47,0,0,1,79.16,359Z" transform="translate(-39.14 -28.39)"/><path class="cls-1" d="M83.37,358.42,83,359A.49.49,0,0,1,83.37,358.42Z" transform="translate(-39.14 -28.39)"/><path class="cls-1" d="M60.5,334.61l-.38-.46A.4.4,0,0,1,60.5,334.61Z" transform="translate(-39.14 -28.39)"/><path class="cls-1" d="M79.53,359.48a.61.61,0,0,1-.25-.32l.22.09Z" transform="translate(-39.14 -28.39)"/><path class="cls-1" d="M165.11,334.61l-.42-.64A.56.56,0,0,1,165.11,334.61Z" transform="translate(-39.14 -28.39)"/><path class="cls-1" d="M100.19,334.57l-.47.61A.53.53,0,0,1,100.19,334.57Z" transform="translate(-39.14 -28.39)"/><path class="cls-1" d="M180.21,360.15l-.42-.64A.54.54,0,0,1,180.21,360.15Z" transform="translate(-39.14 -28.39)"/><path class="cls-1" d="M80.46,360.7a.8.8,0,0,1-.52-.66A.66.66,0,0,1,80.46,360.7Z" transform="translate(-39.14 -28.39)"/><path class="cls-1" d="M126.34,353.76l-.36.54A.44.44,0,0,1,126.34,353.76Z" transform="translate(-39.14 -28.39)"/><path class="cls-1" d="M99.66,335.28a.61.61,0,0,1-.34.44C99.28,335.45,99.41,335.32,99.66,335.28Z" transform="translate(-39.14 -28.39)"/><path class="cls-1" d="M50.62,335.82a.66.66,0,0,1,.24.48C50.63,336.21,50.51,336.08,50.62,335.82Z" transform="translate(-39.14 -28.39)"/><path class="cls-1" d="M61.81,336.34l-.48-.59A.54.54,0,0,1,61.81,336.34Z" transform="translate(-39.14 -28.39)"/><path class="cls-1" d="M62.28,336.93l-.41-.5A.45.45,0,0,1,62.28,336.93Z" transform="translate(-39.14 -28.39)"/><path class="cls-1" d="M99,336.24l-.5.67A.66.66,0,0,1,99,336.24Z" transform="translate(-39.14 -28.39)"/><path class="cls-1" d="M98.48,337l-.42.55A.49.49,0,0,1,98.48,337Z" transform="translate(-39.14 -28.39)"/><path class="cls-1" d="M108.91,337.4a.57.57,0,0,1,.16-.37l0,.23Z" transform="translate(-39.14 -28.39)"/><path class="cls-1" d="M166.84,337.51c-.14-.21-.27-.42-.41-.62A.53.53,0,0,1,166.84,337.51Z" transform="translate(-39.14 -28.39)"/><path class="cls-1" d="M64.06,339.25l-.43-.54A.49.49,0,0,1,64.06,339.25Z" transform="translate(-39.14 -28.39)"/><path class="cls-1" d="M97.3,338.66l-.45.59A.51.51,0,0,1,97.3,338.66Z" transform="translate(-39.14 -28.39)"/><path class="cls-1" d="M135.05,338.67l-.36.53A.44.44,0,0,1,135.05,338.67Z" transform="translate(-39.14 -28.39)"/><path class="cls-1" d="M96.76,339.4a.63.63,0,0,1-.26.36C96.45,339.54,96.54,339.42,96.76,339.4Z" transform="translate(-39.14 -28.39)"/><path class="cls-1" d="M134.44,339.74c-.14.22-.29.44-.43.67A.61.61,0,0,1,134.44,339.74Z" transform="translate(-39.14 -28.39)"/><path class="cls-1" d="M168.55,340.41l-.39-.59A.5.5,0,0,1,168.55,340.41Z" transform="translate(-39.14 -28.39)"/><path class="cls-1" d="M65.34,341a.76.76,0,0,1-.51-.63A.61.61,0,0,1,65.34,341Z" transform="translate(-39.14 -28.39)"/><path class="cls-1" d="M65.82,341.57l-.45-.55A.49.49,0,0,1,65.82,341.57Z" transform="translate(-39.14 -28.39)"/><path class="cls-1" d="M95.58,341.07l-.39.51A.44.44,0,0,1,95.58,341.07Z" transform="translate(-39.14 -28.39)"/><path class="cls-1" d="M136.77,335.7l-.41.64A.56.56,0,0,1,136.77,335.7Z" transform="translate(-39.14 -28.39)"/><path class="cls-1" d="M50.71,321.84l-.44-.52A.46.46,0,0,1,50.71,321.84Z" transform="translate(-39.14 -28.39)"/><path class="cls-1" d="M109.51,321.32l-.42.52A.45.45,0,0,1,109.51,321.32Z" transform="translate(-39.14 -28.39)"/><path class="cls-1" d="M51.08,322.34a.57.57,0,0,1-.25-.32l.22.09Z" transform="translate(-39.14 -28.39)"/><path class="cls-1" d="M94.41,342.75l-.42.56A.49.49,0,0,1,94.41,342.75Z" transform="translate(-39.14 -28.39)"/><path class="cls-1" d="M132.72,342.71l-.4.6A.52.52,0,0,1,132.72,342.71Z" transform="translate(-39.14 -28.39)"/><path class="cls-1" d="M170.26,343.27l-.36-.52A.44.44,0,0,1,170.26,343.27Z" transform="translate(-39.14 -28.39)"/><path class="cls-1" d="M82.19,360.12l-.47.6A.53.53,0,0,1,82.19,360.12Z" transform="translate(-39.14 -28.39)"/></svg>