<svg xmlns="http://www.w3.org/2000/svg" width="821" height="920" viewBox="0 0 821 920"><defs><style>.a{fill:#6200ea;}</style></defs><rect class="a" width="192" height="191" transform="translate(0 21)"/><rect class="a" width="128" height="125" transform="translate(360 3)"/><rect class="a" width="128" height="66" transform="translate(291 183)"/><rect class="a" width="123" height="67" transform="translate(102 243)"/><rect class="a" width="67" height="134" transform="translate(0 301)"/><path class="a" d="M54.37,133H0V0H123V133Z" transform="translate(220 326)"/><path class="a" d="M21.548,458V352.032h40.4V210.141H0V0H290V160.749H196.625v49.392H167V352.929h-39.5V458Z" transform="translate(531 462)"/><rect class="a" width="67" height="111" transform="translate(102 341)"/><rect class="a" width="123" height="45" transform="translate(34 604)"/><rect class="a" width="61" height="32" transform="translate(364 500)"/><rect class="a" width="105" height="107" transform="translate(34 681)"/><rect class="a" width="106" height="108" transform="translate(578 314)"/><rect class="a" width="107" height="83" transform="translate(628 120)"/><path class="a" d="M0,85V0H89V85Z" transform="translate(628)"/><rect class="a" width="61" height="85" transform="translate(432 360)"/><rect class="a" width="61" height="107" transform="translate(505 162)"/><rect class="a" width="76" height="37" transform="translate(396 857)"/><rect class="a" width="19" height="37" transform="translate(48 857)"/><path class="a" d="M33.835,31H0V0H65V31Z" transform="translate(323 819)"/><path class="a" d="M93.4,139H0V0H107V139Z" transform="translate(316 580)"/><rect class="a" width="73" height="73" transform="translate(434 753)"/><path class="a" d="M0,95V0H56V95Z" transform="translate(191 650)"/><path class="a" d="M0,33V0H93V18.73H33.408V33Z" transform="translate(290 753)"/><rect class="a" width="148" height="44" transform="translate(162 522)"/><rect class="a" width="146" height="46" transform="translate(102 826)"/><path class="a" d="M66.2,77H0V0H107V77Z" transform="translate(1 483)"/></svg>