<svg xmlns="http://www.w3.org/2000/svg" xmlns:xlink="http://www.w3.org/1999/xlink" width="555.001" height="141.084" viewBox="0 0 555.001 141.084"><defs><style>.a{fill:url(#a);}</style><linearGradient id="a" x1="0.975" y1="0.961" x2="0.119" y2="0.142" gradientUnits="objectBoundingBox"><stop offset="0" stop-color="#304ffe"/><stop offset="1" stop-color="#18287f"/></linearGradient></defs><path class="a" d="M370.127,141.085V91.263h43.211v49.822Zm128.157-7.093V76.09H555v57.9Zm-371.666-8.478V75.691h56.716v49.823Zm102.305-.095V75.6H285.64V125.42ZM0,110.854V93.348H8.1v17.506ZM41.318,92.116V75.957H80.479V92.116Zm279.1-11.3V71.386h39.16v9.426ZM23.763,65.431V29.074H41.318V65.431Zm145.976-3.073V28.7H208.9V62.359ZM275.826,58.49V8.668H332.54V58.49ZM485.871,58.3V8.478H519.63V58.3Zm-52.042-.4V0h17.555V57.9Zm-336.6-4.135V21.451h8.1V53.768Zm284.688-6.676V37.665h17.555v9.426Z"/></svg>