<svg xmlns="http://www.w3.org/2000/svg" xmlns:xlink="http://www.w3.org/1999/xlink" width="460.001" height="248" viewBox="0 0 460.001 248"><defs><style>.a{fill:url(#a);}</style><linearGradient id="a" x1="0.044" y1="-0.055" x2="0.823" y2="0.955" gradientUnits="objectBoundingBox"><stop offset="0" stop-color="#6200ea"/><stop offset="1" stop-color="#3b008c"/></linearGradient></defs><path class="a" d="M22,239V165.19h81.352V239Zm310.612-32.477V132.715h81.35v73.809ZM220.2,202.1v-73.81h81.352V202.1ZM119.621,156.333V101.714h81.35v54.619ZM32.354,132.715V42.667H243.865V78.1H113.7v54.619Zm263.28-25.1V88.428h-32.54V53H317.82V32.333h31.061v75.286Zm112.411-4.429V84h36.978v19.19ZM371.068,88.428V69.238H390.3v19.19Zm73.954-33.952V19.047H482V54.476Zm-68.038,0v-25.1h19.229v25.1ZM95.955,22V1.334h99.1V22ZM217.241,11.667V-9H384.38V11.667Z" transform="translate(-22 9)"/></svg>