<svg xmlns="http://www.w3.org/2000/svg" xmlns:xlink="http://www.w3.org/1999/xlink" width="759" height="142" viewBox="0 0 759 142"><defs><style>.a{fill:url(#a);}</style><linearGradient id="a" x1="0.044" y1="-0.055" x2="0.823" y2="0.955" gradientUnits="objectBoundingBox"><stop offset="0" stop-color="#6200ea"/><stop offset="1" stop-color="#3b008c"/></linearGradient></defs><path class="a" d="M705.584,142V125.807H736.64V142ZM214.9,142V95.913h68.322V142Zm118.012-6.229V73.492h68.322v62.28Zm171.427-11.211V107.123H644.716v17.438ZM0,107.123V31.141H177.638v29.9H68.322v46.088Zm686.951-13.7V63.527h31.055V93.421ZM426.083,73.492V11.211h68.322V73.492Zm-236.023,0V11.211h68.322V73.492ZM617.386,68.51V52.316H590.058V22.422H636.02V4.983h26.086V68.51ZM308.073,46.088V28.65H391.3V46.088ZM742.852,39.86V23.667H759V39.86Zm-55.9-18.685V0H703.1V21.176Z"/></svg>