<svg xmlns="http://www.w3.org/2000/svg" xmlns:xlink="http://www.w3.org/1999/xlink" width="1564" height="1220.525" viewBox="0 0 1564 1220.525"><defs><style>.a{fill:url(#a);}</style><linearGradient id="a" y1="0.476" x2="1.085" y2="0.479" gradientUnits="objectBoundingBox"><stop offset="0" stop-color="#42009e"/><stop offset="0.33" stop-color="#6200ea"/><stop offset="0.763" stop-color="#304ffe"/><stop offset="1" stop-color="#536dfe"/></linearGradient></defs><path class="a" d="M817.283,1220.524H0V0H817.283V169.233H347.7V280.771H313.056V373.08H206.566V682.057H151.4V783.341h55.17v164.1H314.339v85.9H445.208v56.41H673.585v-29.487h143.7v160.258h0Zm603.019-38.463V1008.983H1564v173.078Zm-537.585,0V1080.779h228.378v101.282Zm351.548-24.359V887.188h116.755V1157.7Zm-272-125.642V903.854h228.378V1032.06Zm-323.321-14.1V916.674H867.321v101.283ZM355.4,998.727v-164.1H463.17v164.1ZM526.038,889.752V682.057H633.812V889.752Zm531.17-15.384V773.084h130.868V874.367ZM751.849,848.726V675.648H882.717V848.726Zm552.981-21.8V698.725h143.7V826.931ZM409.283,785.9V684.621h55.17V785.9Zm-191.169,0V684.621H325.887V785.9ZM1208.6,753.852V626.928h51.32V753.852ZM918.642,655.134V526.928h228.376V655.134Zm-617.133,0V553.851H409.283V655.134Zm354.114-28.206V356.414H849.359V626.928Zm590.188-16.666V564.108h116.755v46.154ZM449.057,564.108V356.414H556.83V564.108Zm459.321-73.077v-80.77h279.7v80.77ZM1284.3,430.773V346.157h-94.943v-93.59h193.736V430.773Zm-207.849-32.051V314.105H1171.4v84.617ZM712.076,307.7V196.156H987.925V307.7Zm-302.793,0V196.156H603.019V307.7Zm877.585-111.54V34.616h116.756v161.54ZM1027.7,144.874V52.565h193.736v92.309Z"/></svg>